<?xml version="1.0" encoding="UTF-8"?>
<svg version="1.1" xmlns="http://www.w3.org/2000/svg" width="512" height="512">
<path d="M0 0 C1.22237869 -0.00525696 1.22237869 -0.00525696 2.4694519 -0.01062012 C5.16591891 -0.01942993 7.86212402 -0.01359095 10.55859375 -0.00683594 C12.43042044 -0.0081828 14.30224678 -0.01012352 16.17407227 -0.01263428 C20.09817839 -0.01558452 24.02219351 -0.01129108 27.94628906 -0.00195312 C32.98040511 0.00944134 38.01430791 0.00288134 43.04841614 -0.00909805 C46.91395682 -0.01631933 50.77944681 -0.01402749 54.64498901 -0.00884247 C56.50137355 -0.00750671 58.35776266 -0.0091511 60.21414185 -0.01380157 C62.80694806 -0.01887118 65.39940719 -0.0111505 67.9921875 0 C68.76215057 -0.00404846 69.53211365 -0.00809692 70.32540894 -0.01226807 C74.09255108 0.01779991 75.7810961 0.1154573 78.99609375 2.25878906 C80.28756026 5.52443566 80.15289027 6.89143722 78.765625 10.14160156 C77.79689453 11.74648438 77.79689453 11.74648438 76.80859375 13.38378906 C76.28676514 14.26828735 76.28676514 14.26828735 75.75439453 15.1706543 C73.51275051 18.92485461 71.13504891 22.57991851 68.71875 26.22363281 C67.88863403 27.49086182 67.88863403 27.49086182 67.04174805 28.78369141 C65.93930499 30.45821911 64.81990853 32.12172319 63.68286133 33.77294922 C63.1752124 34.54300293 62.66756348 35.31305664 62.14453125 36.10644531 C61.45109619 37.12750366 61.45109619 37.12750366 60.74365234 38.16918945 C59.76218396 40.28781855 59.76218396 40.28781855 60.63305664 42.63671875 C62.19043246 45.63263785 63.87224227 48.49678047 65.65625 51.36425781 C66.00618515 51.9295369 66.3561203 52.49481598 66.71665955 53.07722473 C67.82694321 54.86923735 68.9425444 56.65786276 70.05859375 58.44628906 C71.17712403 60.24608193 72.29454564 62.04655567 73.41123962 63.8474884 C74.42071001 65.47433721 75.43306196 67.09939693 76.44555664 68.72436523 C78.97448738 72.8580182 79.3469574 75.34669794 78.99609375 80.25878906 C75.39691647 82.65824059 72.8317985 82.52850666 68.67895508 82.48583984 C67.93724564 82.4861319 67.19553619 82.48642395 66.43135071 82.48672485 C63.9801564 82.4853317 61.5292662 82.46977133 59.078125 82.45410156 C57.37847561 82.45037138 55.67882406 82.44752443 53.97917175 82.44552612 C49.50584984 82.43789008 45.03265781 82.41824185 40.55938721 82.39611816 C35.19211766 82.37206197 29.82480468 82.36287861 24.45749664 82.35121155 C16.30360535 82.33181742 8.14999904 82.29349474 -0.00390625 82.25878906 C-0.00390625 105.02878906 -0.00390625 127.79878906 -0.00390625 151.25878906 C2.63609375 151.58878906 5.27609375 151.91878906 7.99609375 152.25878906 C11.1186781 153.95407273 12.50673351 156.06411134 13.99609375 159.25878906 C14.24023438 162.74243164 14.24023438 162.74243164 14.15234375 166.52832031 C14.12978516 167.78878174 14.10722656 169.04924316 14.08398438 170.34790039 C14.05498047 171.30849365 14.02597656 172.26908691 13.99609375 173.25878906 C15.87312988 173.23522339 15.87312988 173.23522339 17.78808594 173.21118164 C22.43222615 173.15686801 27.0763383 173.12243367 31.72070312 173.09399414 C33.73051678 173.07891081 35.74029754 173.05844134 37.75 173.0324707 C40.63940551 172.99606762 43.52837571 172.97905818 46.41796875 172.96582031 C47.76504913 172.94259453 47.76504913 172.94259453 49.13934326 172.91889954 C50.40019745 172.91855965 50.40019745 172.91855965 51.68652344 172.91821289 C52.792388 172.90822014 52.792388 172.90822014 53.92059326 172.89802551 C56.86099086 173.4091255 57.93825128 174.0460809 59.99609375 176.25878906 C60.38712711 179.39340449 60.51853052 182.17688572 60.47711182 185.3132782 C60.48052952 186.25097496 60.48394722 187.18867173 60.48746848 188.15478355 C60.49407978 191.31044566 60.47201741 194.4652653 60.45019531 197.62084961 C60.44906754 199.87742086 60.44969932 202.13399357 60.45196533 204.39056396 C60.45311614 210.52874802 60.42954734 216.66662139 60.4016695 222.80473304 C60.37671694 229.21492434 60.3743187 235.62512224 60.36956787 242.03535461 C60.35853556 252.79845598 60.33352636 263.56142109 60.29785156 274.32446289 C60.26114255 285.41104561 60.23282539 296.4975973 60.21582031 307.58422852 C60.21476942 308.26746233 60.21371852 308.95069615 60.21263579 309.65463402 C60.20741568 313.08217424 60.20236084 316.50971468 60.19738817 319.93725526 C60.15591276 348.37784526 60.08515561 376.81831104 59.99609375 405.25878906 C61.18847656 405.20078125 62.38085938 405.14277344 63.609375 405.08300781 C65.17574216 405.03611059 66.74215159 404.99061038 68.30859375 404.94628906 C69.09427734 404.90439453 69.87996094 404.8625 70.68945312 404.81933594 C72.8938448 404.77243399 74.84014233 404.79181053 76.99609375 405.25878906 C80.40715389 409.1349258 80.43747112 413.04343071 80.39453125 418.00878906 C80.39740143 418.74452148 80.40027161 419.48025391 80.40322876 420.23828125 C80.40526301 421.7880938 80.3997779 423.33793241 80.38720703 424.88769531 C80.37114285 427.25156399 80.38707595 429.61372317 80.40625 431.97753906 C80.40426745 433.48795948 80.40042354 434.99837884 80.39453125 436.50878906 C80.40060394 437.21100586 80.40667664 437.91322266 80.41293335 438.63671875 C80.35002534 443.05515232 79.8537646 445.85309912 76.99609375 449.25878906 C74.30856533 449.77229274 72.23830285 449.93180429 69.54504395 449.88799477 C68.39141735 449.89889557 68.39141735 449.89889557 67.21448517 449.9100166 C64.61580981 449.92838565 62.01858849 449.91085709 59.41992188 449.89370728 C57.5468037 449.89946379 55.67369115 449.90740173 53.80059052 449.9173435 C48.63669352 449.93830468 43.4732558 449.92785968 38.30935669 449.91241241 C32.7468955 449.90114061 27.18451557 449.91854081 21.62207031 449.93231201 C10.71866358 449.95459366 -0.18457146 449.94972131 -11.08798504 449.93524881 C-19.94612225 449.92397591 -28.8042112 449.9224172 -37.66235352 449.92786789 C-38.92109488 449.92863405 -40.17983624 449.92940022 -41.47672129 449.9301896 C-44.03349751 449.93178816 -46.59027371 449.93340923 -49.1470499 449.93505256 C-72.46071963 449.94891731 -95.77428861 449.93451723 -119.087937 449.90833957 C-140.38289368 449.88461047 -161.67770088 449.88673356 -182.97265625 449.91064453 C-206.88268835 449.93740192 -230.79263797 449.94795107 -254.70269012 449.93258321 C-257.25027973 449.9309904 -259.79786935 449.92941855 -262.34545898 449.92786789 C-263.59905795 449.92709651 -264.85265691 449.92632513 -266.14424372 449.92553038 C-274.9960038 449.92120572 -283.847711 449.9285164 -292.69946289 449.94026566 C-303.4807186 449.95426087 -314.2617922 449.95055353 -325.04302692 449.92386194 C-330.54819581 449.91068362 -336.05306062 449.90563956 -341.55822754 449.9221077 C-346.59162893 449.93693734 -351.6244426 449.9289352 -356.65779018 449.90221994 C-358.48478835 449.89660516 -360.31183552 449.89954187 -362.13880253 449.91159888 C-364.61087308 449.92666977 -367.08089539 449.91135273 -369.55285645 449.88799477 C-370.63230782 449.90555351 -370.63230782 449.90555351 -371.73356628 449.92346698 C-373.72370148 449.88553488 -373.72370148 449.88553488 -377.00390625 449.25878906 C-380.32795223 445.29728665 -380.44547536 441.49631904 -380.40234375 436.50878906 C-380.40521393 435.77305664 -380.40808411 435.03732422 -380.41104126 434.27929688 C-380.41307551 432.72948432 -380.4075904 431.17964572 -380.39501953 429.62988281 C-380.37895535 427.26601414 -380.39488845 424.90385495 -380.4140625 422.54003906 C-380.41207995 421.02961865 -380.40823604 419.51919929 -380.40234375 418.00878906 C-380.40841644 417.30657227 -380.41448914 416.60435547 -380.42074585 415.88085938 C-380.35911829 411.55235994 -380.11551291 408.39674613 -377.00390625 405.25878906 C-374.08502878 404.6522087 -371.28105351 404.78820697 -368.31640625 404.94628906 C-367.51912109 404.96884766 -366.72183594 404.99140625 -365.90039062 405.01464844 C-363.93409291 405.07351963 -361.96876134 405.16320152 -360.00390625 405.25878906 C-360.02485352 403.94160889 -360.04580078 402.62442871 -360.06738281 401.26733398 C-360.13971068 396.38658493 -360.18567987 391.50588336 -360.22363281 386.62475586 C-360.24376472 384.51106809 -360.27107268 382.39743613 -360.30566406 380.28393555 C-360.35411252 377.24806971 -360.37685901 374.21293928 -360.39453125 371.17675781 C-360.41517639 370.22979538 -360.43582153 369.28283295 -360.45709229 368.30717468 C-360.45930725 361.85059036 -360.45930725 361.85059036 -358.38671875 359.15722656 C-355.29088768 357.989946 -352.79901415 357.92067395 -349.48828125 357.96582031 C-348.23789062 357.97548828 -346.9875 357.98515625 -345.69921875 357.99511719 C-344.39726562 358.02025391 -343.0953125 358.04539062 -341.75390625 358.07128906 C-340.43648437 358.08482422 -339.1190625 358.09835937 -337.76171875 358.11230469 C-334.50868233 358.14766378 -331.25657009 358.19958424 -328.00390625 358.25878906 C-328.02674683 357.38077637 -328.0495874 356.50276367 -328.07312012 355.59814453 C-328.24787132 343.1095754 -327.17475724 330.81177956 -326.03515625 318.38378906 C-325.83275754 316.1198467 -325.6309862 313.85584816 -325.42980957 311.59179688 C-324.90338785 305.68623518 -324.36855114 299.78146605 -323.83184814 293.87683105 C-323.28377125 287.83013421 -322.74380842 281.78271319 -322.203125 275.73535156 C-321.14457667 263.90911561 -320.07712067 252.08370248 -319.00390625 240.25878906 C-319.71598991 240.84682816 -319.71598991 240.84682816 -320.44245911 241.44674683 C-322.63556257 243.25716478 -324.8294954 245.066575 -327.0234375 246.87597656 C-327.76984497 247.49239014 -328.51625244 248.10880371 -329.28527832 248.74389648 C-334.0499162 252.67197515 -338.84675127 256.55482992 -343.69140625 260.38378906 C-344.51215637 261.03408081 -344.51215637 261.03408081 -345.3494873 261.69750977 C-355.8711592 269.94216916 -355.8711592 269.94216916 -363.61328125 269.57128906 C-369.44430997 268.80906309 -373.16335993 265.81085096 -376.734375 261.34472656 C-379.02317278 257.58405575 -380.11113664 253.65523486 -380.00390625 249.25878906 C-378.1499521 243.34696273 -375.88393629 239.28191849 -371.79711914 234.67504883 C-371.01312005 233.76878958 -371.01312005 233.76878958 -370.21328259 232.84422207 C-363.36049699 224.99037984 -356.25825505 217.36417243 -349.06640625 209.82128906 C-348.0324151 208.7313521 -348.0324151 208.7313521 -346.97753525 207.61939621 C-317.21176425 176.40097242 -317.21176425 176.40097242 -296.10618591 175.2875824 C-287.42541157 175.2978654 -278.97424264 176.7940675 -270.4402771 178.24407959 C-265.5178098 178.84832209 -265.5178098 178.84832209 -261.05569458 177.02694702 C-257.56485326 173.58951071 -255.27890423 169.59840046 -253.08702087 165.25404358 C-251.34032627 162.03637832 -249.08797207 159.3128909 -246.81640625 156.44628906 C-243.49845821 151.66022242 -242.05715069 148.47949622 -242.98046875 142.67285156 C-243.04559415 135.96493494 -238.32642617 130.75903852 -234.17724609 125.96240234 C-233.58730582 125.27052543 -232.99736555 124.57864851 -232.3895483 123.86580563 C-224.61800856 114.82698335 -216.56212788 106.04993056 -208.37890625 97.38378906 C-207.58836224 96.54401897 -206.79781822 95.70424889 -205.98331833 94.83903122 C-172.77021965 59.78970696 -172.77021965 59.78970696 -153.62151337 59.05082321 C-146.67692668 59.00237869 -139.91920781 59.67303075 -133.04415131 60.59143066 C-113.9924163 63.55727528 -113.9924163 63.55727528 -96.67138672 56.86083984 C-83.69023133 46.84485539 -72.67290681 33.81939674 -62.68296814 20.89186096 C-58.09632255 15.06030769 -54.54417125 11.36015728 -47.00390625 10.25878906 C-41.28366238 10.19540686 -35.91313524 12.1195461 -31.4765625 15.72753906 C-26.46625734 20.93719324 -25.55639069 26.40603567 -25.47265625 33.45019531 C-26.79310834 40.4311148 -31.46449857 45.11727169 -36.42480469 49.82983398 C-37.05937088 50.44556274 -37.69393707 51.0612915 -38.34773254 51.69567871 C-39.7169528 53.02356136 -41.08933614 54.3481888 -42.46456146 55.6698513 C-44.6428602 57.76774495 -46.80736682 59.87895433 -48.96807861 61.99494934 C-55.10851136 68.00760017 -61.25631564 74.01193415 -67.45263672 79.96704102 C-71.25046106 83.61895003 -75.01804492 87.29980943 -78.7678299 91.00100136 C-80.19709931 92.40066814 -81.63724693 93.78931917 -83.08843231 95.16625023 C-91.14068741 102.33094399 -91.14068741 102.33094399 -95.86601257 111.66285706 C-95.87983115 114.67110382 -95.54727821 117.3082578 -95.00390625 120.25878906 C-94.99635819 122.19765034 -95.01028282 124.13682789 -95.0546875 126.07519531 C-94.72713262 129.26985926 -94.38477378 130.80879184 -92.29833984 133.27392578 C-90.01553969 135.11167411 -87.68978153 136.66552621 -85.19140625 138.19628906 C-83.55805164 139.26509062 -81.9264807 140.33662394 -80.296875 141.41113281 C-79.57008545 141.86480225 -78.8432959 142.31847168 -78.09448242 142.78588867 C-73.23868583 146.2070052 -71.09047547 149.72891422 -69.0859375 155.24316406 C-68.82711288 155.92781738 -68.56828827 156.6124707 -68.30162048 157.31787109 C-67.46273363 159.54440649 -66.63934798 161.77631665 -65.81640625 164.00878906 C-65.24148309 165.54591853 -64.66563036 167.08270062 -64.08886719 168.61914062 C-62.93290288 171.702767 -61.7828544 174.78850315 -60.63720703 177.87597656 C-59.17721488 181.80441015 -57.68800643 185.72065051 -56.1875 189.63378906 C-55.37623983 191.7587653 -54.56503744 193.88376359 -53.75390625 196.00878906 C-53.38370361 196.97010742 -53.01350098 197.93142578 -52.63208008 198.921875 C-49.47766921 207.27014092 -48.72140656 211.1287903 -51.00390625 220.25878906 C-45.06390625 220.25878906 -39.12390625 220.25878906 -33.00390625 220.25878906 C-33.01437988 218.97190186 -33.02485352 217.68501465 -33.03564453 216.35913086 C-33.07181169 211.59011613 -33.09479479 206.82111355 -33.11376953 202.05200195 C-33.1238346 199.98687706 -33.13748779 197.92176643 -33.15478516 195.85668945 C-33.17901118 192.89042643 -33.19038422 189.92435163 -33.19921875 186.95800781 C-33.20954132 186.03291916 -33.21986389 185.10783051 -33.23049927 184.15470886 C-33.23065033 183.29404312 -33.23080139 182.43337738 -33.23095703 181.54663086 C-33.23539825 180.78940231 -33.23983948 180.03217377 -33.24441528 179.2519989 C-33.00390625 177.25878906 -33.00390625 177.25878906 -31.00390625 174.25878906 C-28.37890625 173.57128906 -28.37890625 173.57128906 -26.00390625 173.25878906 C-26.07351563 172.329375 -26.143125 171.39996094 -26.21484375 170.44238281 C-26.71281007 159.07215192 -26.71281007 159.07215192 -23.56640625 154.94628906 C-20.85195949 152.5016036 -18.90127707 151.87182698 -15.28125 151.59082031 C-14.4780835 151.5222583 -13.67491699 151.45369629 -12.84741211 151.38305664 C-12.23905518 151.34204834 -11.63069824 151.30104004 -11.00390625 151.25878906 C-11.00667163 150.49272654 -11.00943701 149.72666401 -11.01228619 148.93738747 C-11.07846824 130.31856485 -11.12814886 111.69976564 -11.15934277 93.0808506 C-11.17482791 84.07696948 -11.19594877 75.07316675 -11.23022461 66.06933594 C-11.26007668 58.2238489 -11.27946926 50.37841862 -11.28617173 42.53287637 C-11.29009114 38.37666003 -11.29933617 34.2206061 -11.32109642 30.06444168 C-11.34139553 26.1558402 -11.3477535 22.24746868 -11.34322929 18.3388195 C-11.34405746 16.90124577 -11.3500623 15.46366468 -11.36152267 14.0261364 C-11.37636218 12.06945169 -11.37109225 10.11264475 -11.3646698 8.15591431 C-11.36743518 7.05898066 -11.37020056 5.962047 -11.37304974 4.83187294 C-11.25123239 3.98275526 -11.12941504 3.13363758 -11.00390625 2.25878906 C-7.25696628 -0.23917092 -4.33720813 -0.02280502 0 0 Z M-0.00390625 11.25878906 C-0.00390625 31.05878906 -0.00390625 50.85878906 -0.00390625 71.25878906 C21.11609375 71.25878906 42.23609375 71.25878906 63.99609375 71.25878906 C59.97090901 63.8792837 55.95027228 56.85420411 51.2578125 49.93652344 C50.62166016 48.9571582 50.62166016 48.9571582 49.97265625 47.95800781 C49.59189941 47.38912842 49.21114258 46.82024902 48.81884766 46.23413086 C47.64659773 43.4196875 47.70674707 41.28242596 47.99609375 38.25878906 C49.1418457 35.74511719 49.1418457 35.74511719 50.734375 33.29003906 C51.30736328 32.38898438 51.88035156 31.48792969 52.47070312 30.55957031 C53.07720703 29.6353125 53.68371094 28.71105469 54.30859375 27.75878906 C55.49441105 25.91646836 56.67806744 24.07275468 57.859375 22.22753906 C58.38829346 21.41736328 58.91721191 20.6071875 59.4621582 19.77246094 C61.13699142 17.02789897 62.55820038 14.1345758 63.99609375 11.25878906 C42.87609375 11.25878906 21.75609375 11.25878906 -0.00390625 11.25878906 Z M-51.00390625 24.25878906 C-53.04631814 26.44117325 -53.04631814 26.44117325 -54.93041992 28.98974609 C-88.25983381 71.53090821 -88.25983381 71.53090821 -107.24951172 74.13378906 C-115.86664338 75.01175984 -124.51347358 74.53523917 -133.12890625 73.88378906 C-138.76085918 73.46120594 -144.3902368 73.0459129 -150.03125 72.76269531 C-151.03247202 72.7120074 -151.03247202 72.7120074 -152.05392075 72.66029549 C-162.89704143 72.22775704 -169.74404317 74.29338539 -177.84991455 81.51000977 C-184.0079672 87.59587017 -189.16379411 94.45904727 -193.92858887 101.66424561 C-200.6094054 111.57095078 -210.42018759 119.69664906 -218.92285156 128.00634766 C-220.89148397 129.9327612 -222.85063519 131.86841113 -224.80859375 133.80566406 C-225.41581268 134.39426208 -226.02303162 134.98286011 -226.64865112 135.58929443 C-227.20658356 136.14377258 -227.76451599 136.69825073 -228.33935547 137.26953125 C-228.83120331 137.75170105 -229.32305115 138.23387085 -229.82980347 138.73065186 C-231.24752405 140.57586643 -231.70165682 141.95813539 -232.00390625 144.25878906 C-230.34956979 147.82867301 -228.53642195 150.4420667 -225.00390625 152.25878906 C-218.75506072 152.2029958 -215.29009608 148.65028638 -210.81640625 144.75878906 C-209.29958395 143.47350915 -207.78265691 142.18835282 -206.265625 140.90332031 C-205.5339209 140.27635254 -204.8022168 139.64938477 -204.04833984 139.00341797 C-201.43973785 136.77735279 -198.79054996 134.60863453 -196.12890625 132.44628906 C-193.51672821 130.3147833 -190.90839904 128.17963868 -188.3125 126.02832031 C-185.55833287 123.75211676 -182.78573324 121.50108702 -180.00390625 119.25878906 C-179.48586426 118.83436523 -178.96782227 118.40994141 -178.43408203 117.97265625 C-176.84451635 116.67695581 -175.23925069 115.40352684 -173.62890625 114.13378906 C-172.19417969 112.98523438 -172.19417969 112.98523438 -170.73046875 111.81347656 C-168.00390625 110.25878906 -168.00390625 110.25878906 -165.21484375 110.45410156 C-163.00390625 111.25878906 -163.00390625 111.25878906 -162.00390625 112.25878906 C-161.44322349 120.47830698 -162.37240184 128.73811033 -163.15307617 136.91259766 C-163.27664686 138.24594781 -163.39972516 139.57934367 -163.52235413 140.91278076 C-163.78498753 143.76064566 -164.05042881 146.60822935 -164.31795311 149.45563889 C-164.74052666 153.96027444 -165.15281021 158.46581602 -165.56306458 162.97158813 C-166.73004935 175.77573967 -167.90357218 188.57923906 -169.10327148 201.38037109 C-169.7674451 208.46819889 -170.4194555 215.5570342 -171.05777627 222.64723837 C-171.39548123 226.3923359 -171.73954483 230.13660909 -172.09874535 233.87971115 C-172.49847412 238.04538828 -172.87176396 242.21302758 -173.24291992 246.38134766 C-173.42741196 248.23601151 -173.42741196 248.23601151 -173.6156311 250.12814331 C-173.71247696 251.26344482 -173.80932281 252.39874634 -173.90910339 253.56845093 C-174.0003609 254.55246572 -174.0916184 255.53648052 -174.18564129 256.55031395 C-173.96331478 259.86374118 -172.94077988 261.59561619 -171.00390625 264.25878906 C-167.79453216 266.58281857 -164.88884604 266.73449598 -161.00390625 266.25878906 C-157.91844163 264.75193425 -156.41980639 263.38038777 -155.21424866 260.12924194 C-153.26068903 252.83083609 -151.90031906 245.4807921 -150.71069145 238.02565384 C-150.36684028 235.87173834 -150.01549376 233.71915536 -149.66236877 231.56674194 C-148.91557762 227.00679798 -148.1778351 222.44541638 -147.44140625 217.88378906 C-146.58360236 212.57119977 -145.7220025 207.25928168 -144.85084724 201.94886398 C-144.50610135 199.83525839 -144.16824429 197.72062698 -143.83067322 195.60586548 C-143.62027908 194.32037811 -143.40988495 193.03489075 -143.19311523 191.71044922 C-143.01119125 190.58224762 -142.82926727 189.45404602 -142.64183044 188.29165649 C-142.02833355 185.37492317 -141.368619 182.90912754 -140.00390625 180.25878906 C-137.46480316 179.08106193 -135.28359465 178.28271062 -132.6171875 177.54785156 C-131.51433662 177.22196548 -131.51433662 177.22196548 -130.38920593 176.88949585 C-128.83268823 176.43462075 -127.27321699 175.98974977 -125.71118164 175.55419922 C-123.3349712 174.88898627 -120.97160708 174.18806277 -118.60742188 173.48144531 C-117.09047207 173.04306731 -115.5729102 172.60680067 -114.0546875 172.17285156 C-113.35338211 171.96463776 -112.65207672 171.75642395 -111.92951965 171.54190063 C-107.28850539 170.27339767 -103.60471121 169.7081115 -99.00390625 171.25878906 C-97.24639179 173.88803545 -96.17039396 175.95742796 -95.03125 178.84472656 C-94.70024796 179.61628082 -94.36924591 180.38783508 -94.0282135 181.18276978 C-92.97289268 183.65624656 -91.95619634 186.14344454 -90.94140625 188.63378906 C-89.58496012 191.87477563 -88.21480462 195.10989716 -86.84375 198.34472656 C-86.51556274 199.12393463 -86.18737549 199.9031427 -85.84924316 200.70596313 C-81.70783226 211.73851616 -81.70783226 211.73851616 -74.12890625 220.13378906 C-69.97396927 220.29998654 -66.59589405 219.37029541 -63.00390625 217.25878906 C-60.75757217 213.88928795 -60.85049222 212.53729282 -61.46032715 208.64779663 C-62.55165042 203.8514762 -64.33456296 199.3050533 -66.08203125 194.71582031 C-66.49048279 193.62919601 -66.89893433 192.54257172 -67.31976318 191.42301941 C-68.18275486 189.13616953 -69.05037974 186.85106333 -69.92236328 184.56762695 C-71.25130472 181.07812012 -72.55601392 177.5801837 -73.859375 174.08105469 C-74.70296972 171.8545905 -75.54797434 169.62865989 -76.39453125 167.40332031 C-76.78118958 166.36053421 -77.1678479 165.31774811 -77.56622314 164.24336243 C-80.44110146 156.80540048 -83.87373341 152.58967099 -90.39453125 147.96191406 C-91.18601562 147.39601563 -91.9775 146.83011719 -92.79296875 146.24707031 C-93.60507812 145.6734375 -94.4171875 145.09980469 -95.25390625 144.50878906 C-96.88459382 143.34800367 -98.51482729 142.18658 -100.14453125 141.02441406 C-100.86157227 140.5168457 -101.57861328 140.00927734 -102.31738281 139.48632812 C-104.00390625 138.25878906 -104.00390625 138.25878906 -105.00390625 137.25878906 C-105.40664399 133.8081719 -105.58869827 130.37532705 -105.74085999 126.90464783 C-105.88319777 123.85485603 -106.16967842 120.87204784 -106.56834412 117.84596252 C-107.27877732 110.95380801 -107.5193593 104.8133768 -103.36941528 98.9682312 C-99.6489841 94.49007794 -95.41944244 90.55875754 -91.1640625 86.59863281 C-89.63767737 85.11030209 -88.11555716 83.61758608 -86.59751892 82.1207428 C-82.61879189 78.21967648 -78.58686612 74.37866891 -74.53997803 70.54852295 C-70.41494178 66.62583506 -66.34101314 62.65085169 -62.26367188 58.67871094 C-57.68671564 54.22413322 -53.10500596 49.77554966 -48.48487854 45.3657074 C-47.78693176 44.69878876 -47.08898499 44.03187012 -46.36988831 43.34474182 C-45.06342382 42.09809436 -43.75480813 40.85369606 -42.44369507 39.61193848 C-38.23435985 35.72765165 -38.23435985 35.72765165 -36.62890625 30.44628906 C-37.13103068 26.17823142 -38.69501523 24.89086147 -42.00390625 22.25878906 C-45.82930425 20.34609006 -47.66589785 21.97135403 -51.00390625 24.25878906 Z M-177.2578125 130.86425781 C-177.93932373 131.42830322 -178.62083496 131.99234863 -179.32299805 132.57348633 C-180.84260196 133.84205544 -182.36095752 135.11212118 -183.87817383 136.38354492 C-187.58365754 139.47698771 -191.28967143 142.51174825 -195.19921875 145.34472656 C-205.81876801 153.16103475 -212.35195942 162.2098901 -219.22119141 173.38378906 C-221.68513673 177.35741549 -224.24691851 181.26375442 -226.81347656 185.17163086 C-228.10191424 187.13849224 -229.38131262 189.11130626 -230.65136719 191.09008789 C-233.33747418 195.26859479 -236.0196862 199.37174864 -239.1015625 203.27050781 C-247.21211036 213.72353871 -249.19321122 225.72956725 -247.70776367 238.88061523 C-246.877388 241.68626541 -246.09863904 242.42895236 -243.73046875 244.08300781 C-243.07046875 244.55416016 -242.41046875 245.0253125 -241.73046875 245.51074219 C-241.03695312 245.98447266 -240.3434375 246.45820313 -239.62890625 246.94628906 C-238.943125 247.43162109 -238.25734375 247.91695313 -237.55078125 248.41699219 C-234.72889417 250.40713629 -231.8771108 252.34331937 -229.00390625 254.25878906 C-228.01794434 256.00871277 -228.01794434 256.00871277 -227.15039062 258.13842773 C-226.81994751 258.93653366 -226.48950439 259.73463959 -226.14904785 260.55693054 C-225.80208862 261.42147354 -225.45512939 262.28601654 -225.09765625 263.17675781 C-224.5486969 264.51266716 -224.5486969 264.51266716 -223.98864746 265.87556458 C-222.81832308 268.72898673 -221.66090455 271.58744095 -220.50390625 274.44628906 C-219.72482104 276.35354274 -218.94488286 278.26044822 -218.1640625 280.16699219 C-216.40496344 284.46366996 -214.65591095 288.76433792 -212.91023254 293.06648254 C-212.06213776 295.11793326 -211.17586277 297.14815681 -210.27807617 299.17822266 C-208.39276184 303.73635569 -208.80305012 307.37128979 -209.00390625 312.25878906 C-204.71390625 312.25878906 -200.42390625 312.25878906 -196.00390625 312.25878906 C-195.9788501 310.93113525 -195.95379395 309.60348145 -195.92797852 308.2355957 C-195.83409106 303.32858961 -195.73382552 298.4217313 -195.6315918 293.51489258 C-195.58817202 291.38764899 -195.54650232 289.26036896 -195.5065918 287.13305664 C-195.44905918 284.08240755 -195.38531658 281.03194317 -195.3203125 277.98144531 C-195.30360001 277.02416031 -195.28688751 276.06687531 -195.26966858 275.08058167 C-195.24972336 274.19974411 -195.22977814 273.31890656 -195.20922852 272.41137695 C-195.19368423 271.63194229 -195.17813995 270.85250763 -195.16212463 270.04945374 C-195.00390625 268.25878906 -195.00390625 268.25878906 -194.00390625 267.25878906 C-192.15498679 267.02515025 -190.29902594 266.84575272 -188.44140625 266.69628906 C-187.42949219 266.6125 -186.41757813 266.52871094 -185.375 266.44238281 C-184.59253906 266.38179687 -183.81007813 266.32121094 -183.00390625 266.25878906 C-183.1873912 265.02799622 -183.37087616 263.79720337 -183.55992126 262.52911377 C-184.21220784 256.58613967 -183.6719546 250.86667145 -183.10766602 244.93359375 C-182.94695114 243.12950546 -182.94695114 243.12950546 -182.7829895 241.28897095 C-182.48974198 238.01591992 -182.18864214 234.74370779 -181.88408017 231.47169399 C-181.5663884 228.03668621 -181.25929967 224.60073111 -180.95115662 221.16485596 C-180.36666099 214.66455181 -179.77344702 208.16507648 -179.17671674 201.66588521 C-178.30101076 192.12479145 -177.4367605 182.58265838 -176.57459164 173.04033279 C-176.51126111 172.33941977 -176.44793059 171.63850675 -176.38268095 170.91635394 C-176.25640453 169.51866691 -176.13015696 168.12097728 -176.00393909 166.72328496 C-175.57539634 161.98189042 -175.1417747 157.24098097 -174.7066803 152.50018311 C-174.48092485 150.02226134 -174.25520957 147.54433592 -174.02954102 145.06640625 C-173.87289726 143.37534256 -173.87289726 143.37534256 -173.71308899 141.65011597 C-173.61908813 140.61289398 -173.52508728 139.575672 -173.42823792 138.50701904 C-173.34582131 137.60889874 -173.26340471 136.71077843 -173.17849064 135.78544235 C-173.00451753 133.26763576 -172.97310044 130.78171248 -173.00390625 128.25878906 C-174.78511213 128.25878906 -175.93680271 129.7645009 -177.2578125 130.86425781 Z M-235.00390625 159.25878906 C-241.63493829 167.99918493 -248.1543649 176.76359456 -254.26171875 185.87988281 C-256.00390625 188.25878906 -256.00390625 188.25878906 -258.00390625 189.25878906 C-259.82824707 189.02671814 -259.82824707 189.02671814 -262.08398438 188.54370117 C-278.8488771 185.31335504 -299.11410542 182.79790389 -314.05249023 192.80786133 C-324.44330728 200.37731064 -333.43425859 209.64546544 -342.25390625 218.94628906 C-343.22766708 219.96712648 -343.22766708 219.96712648 -344.22109985 221.00858688 C-348.60165442 225.61492044 -352.90552103 230.28366444 -357.14453125 235.02050781 C-357.70593559 235.64550926 -358.26733994 236.27051071 -358.84575653 236.9144516 C-360.41876306 238.68319214 -361.96621466 240.47065438 -363.50488281 242.26928711 C-363.96564461 242.78847182 -364.4264064 243.30765654 -364.90113068 243.84257412 C-367.06635936 246.43837252 -367.98319434 248.09910363 -368.42181396 251.48078918 C-368.23542584 254.45011118 -368.23542584 254.45011118 -365.81640625 256.69628906 C-363.18980232 258.49366897 -363.18980232 258.49366897 -360.6171875 258.07519531 C-357.55889663 257.11976513 -355.8252857 255.82062057 -353.37890625 253.75878906 C-352.50234375 253.03046875 -351.62578125 252.30214844 -350.72265625 251.55175781 C-349.82546875 250.79507813 -348.92828125 250.03839844 -348.00390625 249.25878906 C-346.29755715 247.86053078 -344.58917712 246.46474771 -342.87890625 245.07128906 C-341.97527344 244.33007812 -341.07164062 243.58886719 -340.140625 242.82519531 C-335.66109692 239.1547774 -331.16051917 235.51015446 -326.66162109 231.86352539 C-326.01531738 231.33911865 -325.36901367 230.81471191 -324.703125 230.27441406 C-324.07736572 229.7692627 -323.45160645 229.26411133 -322.80688477 228.74365234 C-321.62851418 227.77319196 -320.4664506 226.78249135 -319.32397461 225.77001953 C-316.36155749 223.15620377 -315.25960631 222.28393989 -311.19140625 221.88378906 C-308.00390625 222.25878906 -308.00390625 222.25878906 -307.00390625 223.25878906 C-306.52010595 230.30812949 -307.25586702 237.39540885 -307.921875 244.40893555 C-308.06817856 246.00859161 -308.06817856 246.00859161 -308.21743774 247.64056396 C-308.42825209 249.93943285 -308.64112475 252.23811375 -308.85586548 254.53661919 C-309.19627195 258.18198899 -309.53088046 261.82785098 -309.86401367 265.47389221 C-310.69231178 274.52685345 -311.53000413 283.57894002 -312.36828613 292.63098145 C-313.07739453 300.29102063 -313.78247852 307.95140889 -314.48208618 315.61232185 C-314.81048518 319.19037024 -315.14476403 322.76783777 -315.47924805 326.34532166 C-315.68177709 328.55660307 -315.88402171 330.76791055 -316.0859375 332.97924805 C-316.22619858 334.45325829 -316.22619858 334.45325829 -316.36929321 335.95704651 C-316.79859203 340.72568035 -317.11473621 345.4897041 -317.2487793 350.27626038 C-317.27530075 351.16061296 -317.3018222 352.04496553 -317.32914734 352.95611668 C-317.18698948 355.32392781 -317.18698948 355.32392781 -315.62995911 357.05188656 C-313.43743649 358.67923897 -312.0137862 358.56356645 -309.31640625 358.44628906 C-307.87890625 358.38378906 -306.44140625 358.32128906 -305.00390625 358.25878906 C-300.82664532 350.69238017 -299.87404289 343.07413941 -298.93359375 334.59082031 C-298.76617356 333.1829902 -298.59729299 331.77533306 -298.42703247 330.36784363 C-297.98491178 326.687443 -297.55881201 323.00538544 -297.1373291 319.3225708 C-296.45964817 313.41887188 -295.76051145 307.51772667 -295.0553627 301.61725426 C-294.81320414 299.56734792 -294.57987683 297.5165797 -294.34762573 295.4655304 C-294.12696945 293.58779182 -294.12696945 293.58779182 -293.90185547 291.67211914 C-293.77624237 290.57563553 -293.65062927 289.47915192 -293.52120972 288.34944153 C-292.98041752 285.11845462 -292.27781355 282.27948586 -291.00390625 279.25878906 C-288.52656423 278.02296062 -286.6149671 277.3058093 -283.984375 276.63378906 C-283.28878983 276.437771 -282.59320465 276.24175293 -281.87654114 276.03979492 C-280.4062663 275.63147275 -278.93251607 275.23549053 -277.45581055 274.85107422 C-275.20106612 274.26131573 -272.96175642 273.62885536 -270.72070312 272.98925781 C-269.28846843 272.5973383 -267.85554351 272.20793068 -266.421875 271.82128906 C-265.7539946 271.6329248 -265.0861142 271.44456055 -264.397995 271.25048828 C-261.42507537 270.49546707 -259.24336546 270.20622947 -256.23095703 270.86743164 C-253.48950562 272.58016258 -252.49672361 274.12643669 -250.953125 276.95800781 C-250.15817627 278.39140503 -250.15817627 278.39140503 -249.34716797 279.85375977 C-248.8007666 280.87429443 -248.25436523 281.8948291 -247.69140625 282.94628906 C-247.12180176 283.98035889 -246.55219727 285.01442871 -245.96533203 286.07983398 C-243.42389315 290.71081237 -240.93655705 295.36906807 -238.484375 300.04785156 C-238.12190674 300.73790283 -237.75943848 301.4279541 -237.38598633 302.13891602 C-236.44207414 303.95008328 -235.51532588 305.77016661 -234.58984375 307.59082031 C-233.12726105 310.48840011 -233.12726105 310.48840011 -230.00390625 312.25878906 C-225.40968377 312.00819511 -222.42356123 311.40487164 -219.00390625 308.25878906 C-219.61670197 302.88224252 -221.41629432 298.42181182 -223.53125 293.50097656 C-224.05471764 292.26276657 -224.05471764 292.26276657 -224.58876038 290.99954224 C-225.70024937 288.37500485 -226.82084095 285.75446208 -227.94140625 283.13378906 C-228.6913226 281.36449819 -229.44067745 279.59496923 -230.18945312 277.82519531 C-231.56440394 274.58407132 -232.93957158 271.34305619 -234.32397461 268.10595703 C-234.60075546 267.45787079 -234.87753632 266.80978455 -235.16270447 266.14205933 C-235.44030106 265.52058014 -235.71789764 264.89910095 -236.00390625 264.25878906 C-236.31618668 263.55924103 -236.6284671 262.85969299 -236.95021057 262.13894653 C-238.5486763 259.2867309 -240.88818185 258.11148622 -243.62890625 256.38378906 C-244.69882813 255.68125 -245.76875 254.97871094 -246.87109375 254.25488281 C-248.74647262 253.05997184 -250.64223974 251.89499718 -252.57421875 250.79394531 C-254.80486097 249.4147848 -256.3347482 248.28163286 -258.00390625 246.25878906 C-258.33007812 243.94555664 -258.33007812 243.94555664 -258.22265625 241.27832031 C-258.19139648 240.29903564 -258.16013672 239.31975098 -258.12792969 238.31079102 C-258.06653809 236.80005005 -258.06653809 236.80005005 -258.00390625 235.25878906 C-258.00165039 234.32188232 -257.99939453 233.38497559 -257.99707031 232.41967773 C-257.94873684 216.92745575 -254.86698759 206.76483035 -245.58789062 194.39453125 C-243.16677664 191.13005758 -240.97481633 187.72341311 -238.75390625 184.32128906 C-236.39612122 180.77822121 -234.00965336 177.25794918 -231.5703125 173.77050781 C-230.82652344 172.69414062 -230.08273438 171.61777344 -229.31640625 170.50878906 C-228.65253906 169.56519531 -227.98867187 168.62160156 -227.3046875 167.64941406 C-226.87542969 166.86050781 -226.44617188 166.07160156 -226.00390625 165.25878906 C-226.64458601 162.17119347 -226.64458601 162.17119347 -228.8515625 161.30957031 C-229.58246094 161.0659375 -230.31335938 160.82230469 -231.06640625 160.57128906 C-231.79988281 160.31992188 -232.53335938 160.06855469 -233.2890625 159.80957031 C-233.85496094 159.6278125 -234.42085937 159.44605469 -235.00390625 159.25878906 Z M-15.00390625 163.25878906 C-15.07596136 164.94487872 -15.08776693 166.63379566 -15.06640625 168.32128906 C-15.04578125 169.95066406 -15.02515625 171.58003906 -15.00390625 173.25878906 C-9.06390625 173.25878906 -3.12390625 173.25878906 2.99609375 173.25878906 C3.01671875 171.62941406 3.03734375 170.00003906 3.05859375 168.32128906 C3.07019531 167.40476563 3.08179688 166.48824219 3.09375 165.54394531 C3.25558424 163.29285579 3.25558424 163.29285579 1.99609375 162.25878906 C-0.68122005 162.15897693 -3.326948 162.11999031 -6.00390625 162.13378906 C-6.75414062 162.12992188 -7.504375 162.12605469 -8.27734375 162.12207031 C-11.93996742 161.78203365 -11.93996742 161.78203365 -15.00390625 163.25878906 Z M-112.66796875 182.69238281 C-114.35019531 183.17094727 -114.35019531 183.17094727 -116.06640625 183.65917969 C-117.82984375 184.17254883 -117.82984375 184.17254883 -119.62890625 184.69628906 C-120.81226563 185.03466797 -121.995625 185.37304688 -123.21484375 185.72167969 C-126.1464399 186.5609673 -129.07594257 187.40693167 -132.00390625 188.25878906 C-132.14980194 189.1179895 -132.29569763 189.97718994 -132.4460144 190.86242676 C-133.82561905 198.98377677 -135.20820778 207.10461199 -136.59409904 215.22489166 C-137.30638901 219.39900119 -138.01754857 223.57329659 -138.72607422 227.74804688 C-139.41066412 231.78150646 -140.09828934 235.81443812 -140.78796768 239.84703064 C-141.04976311 241.38091342 -141.31048872 242.91497921 -141.57009506 244.44923401 C-141.93561046 246.60826089 -142.30502344 248.76658876 -142.67529297 250.92480469 C-142.88403046 252.15058228 -143.09276794 253.37635986 -143.30783081 254.63928223 C-144.05871722 258.54379939 -145.03956909 262.40144043 -146.00390625 266.25878906 C-135.77390625 266.25878906 -125.54390625 266.25878906 -115.00390625 266.25878906 C-114.95492188 263.26171875 -114.9059375 260.26464844 -114.85546875 257.17675781 C-114.80147563 254.27753661 -114.74416157 251.3783988 -114.68652344 248.47924805 C-114.64821521 246.46270955 -114.6133656 244.44610228 -114.58203125 242.42944336 C-114.53642076 239.53246464 -114.47841986 236.63596011 -114.41796875 233.73925781 C-114.40641754 232.83604294 -114.39486633 231.93282806 -114.38296509 231.00224304 C-114.3630954 230.16159805 -114.34322571 229.32095306 -114.32275391 228.45483398 C-114.30943024 227.71537033 -114.29610657 226.97590668 -114.28237915 226.21403503 C-114.00390625 224.25878906 -114.00390625 224.25878906 -112.00390625 221.25878906 C-109.66552734 220.82641602 -109.66552734 220.82641602 -106.77734375 220.74707031 C-105.74609375 220.71162109 -104.71484375 220.67617188 -103.65234375 220.63964844 C-102.57210937 220.61708984 -101.491875 220.59453125 -100.37890625 220.57128906 C-98.74695313 220.52004883 -98.74695313 220.52004883 -97.08203125 220.46777344 C-94.38942562 220.38510572 -91.69715334 220.31601819 -89.00390625 220.25878906 C-90.47303402 215.62073478 -92.25257495 211.16526367 -94.19140625 206.70800781 C-94.49457764 206.00859573 -94.79774902 205.30918365 -95.11010742 204.58857727 C-95.74744349 203.1215047 -96.38621944 201.65505688 -97.02636719 200.18920898 C-98.00728963 197.93852606 -98.97833452 195.68373897 -99.94921875 193.42871094 C-100.57101313 192.00071452 -101.19338836 190.57297085 -101.81640625 189.14550781 C-102.10604248 188.46953049 -102.39567871 187.79355316 -102.6940918 187.09709167 C-105.33210988 181.10918086 -106.53206333 180.9259858 -112.66796875 182.69238281 Z M-22.00390625 184.25878906 C-22.21399839 198.6489667 -22.21399839 198.6489667 -22.3918457 213.03955078 C-22.42412064 214.83921411 -22.45749222 216.63885826 -22.4921875 218.43847656 C-22.4984314 219.37828369 -22.50467529 220.31809082 -22.5111084 221.28637695 C-22.54101868 222.62599487 -22.54101868 222.62599487 -22.5715332 223.99267578 C-22.58263626 224.76988983 -22.59373932 225.54710388 -22.60517883 226.34786987 C-23.00390625 228.25878906 -23.00390625 228.25878906 -26.00390625 230.25878906 C-28.53894111 230.47129664 -30.96793028 230.57001081 -33.50463867 230.57763672 C-34.26585526 230.58768234 -35.02707184 230.59772797 -35.81135559 230.608078 C-38.32735438 230.6389679 -40.84324649 230.6559611 -43.359375 230.67285156 C-45.10387595 230.69155856 -46.84836782 230.71113162 -48.59284973 230.73153687 C-53.18442429 230.78291364 -57.7760282 230.82250963 -62.36773682 230.85968018 C-67.87695786 230.90671868 -73.38603262 230.96834023 -78.89513397 231.02752686 C-87.26466587 231.11580671 -95.63416877 231.18552253 -104.00390625 231.25878906 C-104.33390625 245.77878906 -104.66390625 260.29878906 -105.00390625 275.25878906 C-108.00347607 276.75857397 -111.0992464 276.4378761 -114.39111328 276.46411133 C-115.15218384 276.47401093 -115.91325439 276.48391052 -116.6973877 276.49411011 C-119.21879949 276.52575584 -121.74023013 276.55049463 -124.26171875 276.57519531 C-126.00764461 276.59576219 -127.75356547 276.61675859 -129.4994812 276.63816833 C-134.09930367 276.69341652 -138.69917128 276.74281367 -143.29907227 276.79101562 C-147.99108914 276.84121061 -152.6830403 276.89690712 -157.375 276.95214844 C-166.58457931 277.0597636 -175.79421562 277.16120111 -185.00390625 277.25878906 C-185.02372559 278.5153833 -185.04354492 279.77197754 -185.06396484 281.06665039 C-185.13997622 285.72408253 -185.22870048 290.38120041 -185.32128906 295.03833008 C-185.35959729 297.05486858 -185.3944469 299.07147585 -185.42578125 301.08813477 C-185.47139174 303.98511348 -185.52939264 306.88161802 -185.58984375 309.77832031 C-185.60139496 310.68153519 -185.61294617 311.58475006 -185.62484741 312.51533508 C-185.6447171 313.35598007 -185.66458679 314.19662506 -185.68505859 315.06274414 C-185.69838226 315.80220779 -185.71170593 316.54167145 -185.72543335 317.30354309 C-186.00390625 319.25878906 -186.00390625 319.25878906 -188.00390625 322.25878906 C-190.57366176 322.57506722 -192.90836227 322.69621285 -195.48291016 322.69116211 C-196.25373428 322.70135376 -197.02455841 322.71154541 -197.81874084 322.7220459 C-200.3727229 322.75229842 -202.92633069 322.76146026 -205.48046875 322.77050781 C-207.24882262 322.78734546 -209.01716445 322.80549445 -210.78549194 322.8249054 C-215.44450113 322.87251099 -220.10346155 322.90225185 -224.76263428 322.92834473 C-229.51503131 322.95809717 -234.26726006 323.00464564 -239.01953125 323.04980469 C-248.34756842 323.1359578 -257.67564011 323.20324948 -267.00390625 323.25878906 C-267.04149048 325.1969751 -267.04149048 325.1969751 -267.07983398 327.17431641 C-267.17382249 331.95648563 -267.27406391 336.73850668 -267.3762207 341.52050781 C-267.41960202 343.59241273 -267.46127471 345.66435413 -267.5012207 347.73632812 C-267.5588459 350.71007297 -267.6225625 353.68363355 -267.6875 356.65722656 C-267.70421249 357.5874765 -267.72092499 358.51772644 -267.73814392 359.47616577 C-267.76806175 360.76727768 -267.76806175 360.76727768 -267.79858398 362.08447266 C-267.81412827 362.84392181 -267.82967255 363.60337097 -267.84568787 364.38583374 C-268.00390625 366.25878906 -268.00390625 366.25878906 -269.00390625 368.25878906 C-295.40390625 368.58878906 -321.80390625 368.91878906 -349.00390625 369.25878906 C-349.00390625 381.13878906 -349.00390625 393.01878906 -349.00390625 405.25878906 C-217.66390625 405.25878906 -86.32390625 405.25878906 48.99609375 405.25878906 C48.99609375 332.32878906 48.99609375 259.39878906 48.99609375 184.25878906 C25.56609375 184.25878906 2.13609375 184.25878906 -22.00390625 184.25878906 Z M-274.31640625 284.75878906 C-275.15236328 284.99726563 -275.98832031 285.23574219 -276.84960938 285.48144531 C-278.90272059 286.06804852 -280.95354902 286.6626312 -283.00390625 287.25878906 C-284.02979933 295.33479141 -285.05560628 303.41080469 -286.0813055 311.48683167 C-286.55766126 315.23748293 -287.03404586 318.98813052 -287.51049805 322.73876953 C-287.97092577 326.36327243 -288.43127555 329.98778523 -288.89157295 333.61230469 C-289.06655709 334.99007515 -289.24156858 336.36784213 -289.41660881 337.74560547 C-290.28520542 344.5825729 -291.15279297 351.41962104 -292.00390625 358.25878906 C-287.38390625 358.25878906 -282.76390625 358.25878906 -278.00390625 358.25878906 C-277.98408691 356.96666504 -277.96426758 355.67454102 -277.94384766 354.34326172 C-277.86792257 349.56099561 -277.77918547 344.77903901 -277.68652344 339.99707031 C-277.6481794 337.92519225 -277.6133362 335.85324637 -277.58203125 333.78125 C-277.53649816 330.80737019 -277.47848507 327.83395944 -277.41796875 324.86035156 C-277.40641754 323.93010162 -277.39486633 322.99985168 -277.38296509 322.04141235 C-277.3630954 321.18067108 -277.34322571 320.31992981 -277.32275391 319.43310547 C-277.30943024 318.67365631 -277.29610657 317.91420715 -277.28237915 317.13174438 C-277.00390625 315.25878906 -277.00390625 315.25878906 -275.00390625 313.25878906 C-272.02294922 312.93994141 -272.02294922 312.93994141 -268.24609375 312.84472656 C-267.25151657 312.81567734 -267.25151657 312.81567734 -266.23684692 312.78604126 C-264.11766448 312.72622953 -261.99842775 312.67985519 -259.87890625 312.63378906 C-258.44268456 312.59561061 -257.0064858 312.55655895 -255.5703125 312.51660156 C-252.04838689 312.42052781 -248.52629017 312.33650264 -245.00390625 312.25878906 C-246.4493355 308.46225021 -248.16054417 304.90051069 -250.04296875 301.30175781 C-250.62304688 300.18994141 -251.203125 299.078125 -251.80078125 297.93261719 C-252.4040625 296.78212891 -253.00734375 295.63164062 -253.62890625 294.44628906 C-254.23992187 293.27646484 -254.8509375 292.10664063 -255.48046875 290.90136719 C-256.98615591 288.01938786 -258.494039 285.13858001 -260.00390625 282.25878906 C-265.06076498 281.84682501 -269.52076349 283.35832512 -274.31640625 284.75878906 Z M-369.00390625 416.25878906 C-369.00390625 423.84878906 -369.00390625 431.43878906 -369.00390625 439.25878906 C-224.46390625 439.25878906 -79.92390625 439.25878906 68.99609375 439.25878906 C68.99609375 431.66878906 68.99609375 424.07878906 68.99609375 416.25878906 C-75.54390625 416.25878906 -220.08390625 416.25878906 -369.00390625 416.25878906 Z " fill="#4D81C1" transform="translate(406.00390625,35.7412109375)"/>
<path d="M0 0 C4.49817627 3.65809134 6.70524685 7.86749029 7.50390625 13.58984375 C7.79541237 20.44493932 6.21938726 25.26632766 1.71967316 30.51389122 C0.08362884 32.19917522 -1.59307426 33.82826876 -3.29589844 35.44604492 C-3.93046463 36.06177368 -4.56503082 36.67750244 -5.21882629 37.31188965 C-6.58804655 38.6397723 -7.96042989 39.96439973 -9.33565521 41.28606224 C-11.51395395 43.38395588 -13.67846057 45.49516527 -15.83917236 47.61116028 C-21.97960511 53.62381111 -28.12740939 59.62814509 -34.32373047 65.58325195 C-38.12155481 69.23516097 -41.88913867 72.91602037 -45.63892365 76.6172123 C-47.06819306 78.01687907 -48.50834068 79.40553011 -49.95952606 80.78246117 C-58.01178116 87.94715493 -58.01178116 87.94715493 -62.73710632 97.27906799 C-62.7509249 100.28731475 -62.41837196 102.92446874 -61.875 105.875 C-61.86745194 107.81386128 -61.88137657 109.75303883 -61.92578125 111.69140625 C-61.59822637 114.8860702 -61.25586753 116.42500278 -59.16943359 118.89013672 C-56.88663344 120.72788505 -54.56087528 122.28173715 -52.0625 123.8125 C-50.42914539 124.88130156 -48.79757445 125.95283488 -47.16796875 127.02734375 C-46.4411792 127.48101318 -45.71438965 127.93468262 -44.96557617 128.40209961 C-40.10977958 131.82321614 -37.96156922 135.34512516 -35.95703125 140.859375 C-35.69820663 141.54402832 -35.43938202 142.22868164 -35.17271423 142.93408203 C-34.33382738 145.16061743 -33.51044173 147.39252759 -32.6875 149.625 C-32.11257684 151.16212947 -31.53672411 152.69891156 -30.95996094 154.23535156 C-29.80399663 157.31897794 -28.65394815 160.40471408 -27.50830078 163.4921875 C-26.04830863 167.42062109 -24.55910018 171.33686145 -23.05859375 175.25 C-22.24733358 177.37497623 -21.43613119 179.49997453 -20.625 181.625 C-20.25479736 182.58631836 -19.88459473 183.54763672 -19.50317383 184.53808594 C-16.34876296 192.88635185 -15.59250031 196.74500123 -17.875 205.875 C-24.475 205.875 -31.075 205.875 -37.875 205.875 C-33.875 203.875 -33.875 203.875 -31.6875 203.1875 C-29.585611 201.94246909 -29.585611 201.94246909 -29.00537109 199.04931641 C-28.33634275 193.28420672 -30.94170832 188.051771 -32.9765625 182.7734375 C-33.41003998 181.61881012 -33.84351746 180.46418274 -34.29013062 179.27456665 C-35.20894214 176.83928486 -36.13569383 174.406986 -37.06982422 171.97753906 C-38.49466757 168.26389818 -39.88762476 164.53940656 -41.27734375 160.8125 C-42.17519771 158.44459666 -43.07487679 156.07738438 -43.9765625 153.7109375 C-44.39136871 152.59939301 -44.80617493 151.48784851 -45.23355103 150.34262085 C-48.14369637 142.85101151 -51.34971734 138.42137457 -58.01171875 133.83203125 C-58.75357422 133.31576172 -59.49542969 132.79949219 -60.25976562 132.26757812 C-61.01966797 131.74615234 -61.77957031 131.22472656 -62.5625 130.6875 C-64.08843605 129.63324009 -65.61323006 128.57732471 -67.13671875 127.51953125 C-67.80662842 127.05909424 -68.47653809 126.59865723 -69.16674805 126.12426758 C-70.875 124.875 -70.875 124.875 -72.875 122.875 C-73.38598969 119.4089473 -73.51593048 115.99247049 -73.64125061 112.49156189 C-73.76238043 109.45090048 -74.03725363 106.48452329 -74.43333435 103.46827698 C-75.14559349 96.57465213 -75.3922986 90.43139352 -71.24075317 84.584198 C-67.52010674 80.10629975 -63.29049945 76.17493428 -59.03515625 72.21484375 C-57.50877112 70.72651303 -55.98665091 69.23379702 -54.46861267 67.73695374 C-50.48988564 63.83588742 -46.45795987 59.99487984 -42.41107178 56.16473389 C-38.28603553 52.242046 -34.21210689 48.26706263 -30.13476562 44.29492188 C-25.55780939 39.84034416 -20.97609971 35.3917606 -16.35597229 30.98191833 C-15.30905212 29.98154037 -15.30905212 29.98154037 -14.24098206 28.96095276 C-12.93451757 27.7143053 -11.62590188 26.46990699 -10.31478882 25.22814941 C-5.99075835 21.33564521 -5.99075835 21.33564521 -4.75 15.9375 C-4.73495188 12.83301915 -4.73495188 12.83301915 -5.875 9.875 C-9.12839693 8.34980711 -9.12839693 8.34980711 -12.875 7.875 C-16.87487882 9.74761135 -19.1501529 12.1272836 -21.80151367 15.60595703 C-55.11137176 58.12222022 -55.11137176 58.12222022 -74.13671875 60.76611328 C-82.76817449 61.66284861 -91.43012825 61.20411122 -100.0625 60.5625 C-101.13491943 60.48341337 -101.13491943 60.48341337 -102.22900391 60.40272903 C-102.94169434 60.35016323 -103.65438477 60.29759743 -104.38867188 60.24343872 C-108.58007191 59.93522663 -112.77150926 59.66084812 -116.96875 59.4453125 C-117.63528595 59.41057516 -118.3018219 59.37583782 -118.98855591 59.34004784 C-129.63639918 58.89335397 -136.44075836 60.74970028 -144.43196106 67.83717346 C-150.83740712 74.16496182 -155.94482636 81.38233152 -160.875 88.875 C-167.80408334 97.93347953 -176.65602278 105.66932374 -184.79394531 113.62255859 C-186.76257772 115.54897214 -188.72172894 117.48462207 -190.6796875 119.421875 C-191.28690643 120.01047302 -191.89412537 120.59907104 -192.51974487 121.20550537 C-193.07767731 121.75998352 -193.63560974 122.31446167 -194.21044922 122.88574219 C-194.70229706 123.36791199 -195.1941449 123.85008179 -195.70089722 124.34686279 C-197.1201839 126.19411571 -197.57741049 127.57061078 -197.875 129.875 C-196.23423508 133.32060634 -195.08987558 134.73174962 -191.875 136.875 C-185.6732203 136.94742954 -182.11125524 133.22306106 -177.6875 129.375 C-176.1706777 128.08972008 -174.65375066 126.80456376 -173.13671875 125.51953125 C-172.40501465 124.89256348 -171.67331055 124.2655957 -170.91943359 123.61962891 C-168.3108316 121.39356372 -165.66164371 119.22484546 -163 117.0625 C-160.38782196 114.93099424 -157.77949279 112.79584962 -155.18359375 110.64453125 C-152.42942662 108.36832769 -149.65682699 106.11729796 -146.875 103.875 C-146.09793701 103.23836426 -146.09793701 103.23836426 -145.30517578 102.58886719 C-143.7156101 101.29316675 -142.11034444 100.01973778 -140.5 98.75 C-139.54351562 97.98429687 -138.58703125 97.21859375 -137.6015625 96.4296875 C-134.875 94.875 -134.875 94.875 -132.1484375 95.0078125 C-129.875 95.875 -129.875 95.875 -127.875 97.875 C-126.97657467 105.97837182 -128.24835135 114.46847334 -129.00830078 122.54467773 C-129.13022878 123.87965288 -129.25168518 125.21467117 -129.37271118 126.54972839 C-129.63197491 129.40087522 -129.89412115 132.25173639 -130.1584816 135.10241508 C-130.57617196 139.61106799 -130.98479711 144.12051498 -131.39181519 148.63014221 C-132.54970163 161.44512653 -133.71781036 174.25915695 -134.89892578 187.07202148 C-135.55282359 194.16642683 -136.19837355 201.26154161 -136.83478153 208.35753781 C-137.23734103 212.84069938 -137.65024525 217.3227491 -138.07081246 221.80425537 C-138.39009682 225.23903338 -138.69412642 228.67512983 -139.00048828 232.11108398 C-139.1198877 233.35112183 -139.23928711 234.59115967 -139.36230469 235.86877441 C-139.46052521 237.00270126 -139.55874573 238.13662811 -139.65994263 239.30491638 C-139.75027834 240.28985297 -139.84061405 241.27478956 -139.93368721 242.28957272 C-139.86853677 245.15973334 -139.49304129 246.51938859 -137.875 248.875 C-136.555 249.865 -135.235 250.855 -133.875 251.875 C-139.155 251.875 -144.435 251.875 -149.875 251.875 C-151.8943247 246.82668826 -152.0134956 244.95855008 -151.5612793 239.73095703 C-151.50334764 239.02365322 -151.44541599 238.31634941 -151.38572884 237.58761215 C-151.18927809 235.22654187 -150.97555936 232.86736651 -150.76171875 230.5078125 C-150.61741379 228.81910311 -150.47410153 227.13030864 -150.33171082 225.44143677 C-149.94282458 220.87023896 -149.53823287 216.30056193 -149.12957001 211.73109436 C-148.7894917 207.91565767 -148.45640344 204.09962239 -148.12301826 200.28359604 C-146.99971557 187.43709353 -145.84536521 174.593425 -144.6875 161.75 C-144.04836267 154.65724029 -143.4105854 147.56436206 -142.77564049 140.47122574 C-142.52449342 137.67248507 -142.27119879 134.87394436 -142.01777649 132.07540894 C-141.86567236 130.37954602 -141.71366392 128.68367451 -141.56176758 126.98779297 C-141.45662842 125.83656448 -141.45662842 125.83656448 -141.34936523 124.66207886 C-141.05714766 121.37761599 -140.875 118.17642449 -140.875 114.875 C-141.30619141 115.23102295 -141.73738281 115.5870459 -142.18164062 115.95385742 C-143.48936402 117.03321254 -144.79769137 118.1118361 -146.10644531 119.18994141 C-147.63988882 120.45570891 -149.17041803 121.72501401 -150.69824219 122.99755859 C-154.43534886 126.0990351 -158.18126256 129.1390318 -162.109375 131.99609375 C-172.42700383 139.61762123 -178.65001997 148.14106739 -185.19042969 159.09814453 C-187.57593413 163.03042389 -190.0908619 166.87273064 -192.61425781 170.7175293 C-193.90888291 172.69110251 -195.1947733 174.67043434 -196.47167969 176.65551758 C-199.17672073 180.85088178 -201.87972775 184.9726751 -204.9765625 188.890625 C-213.11707127 199.38513535 -214.97941324 211.31845427 -213.59960938 224.50732422 C-212.70707049 227.42371308 -211.86228409 228.00452119 -209.26953125 229.53125 C-208.53283203 229.99789062 -207.79613281 230.46453125 -207.03710938 230.9453125 C-205.49876906 231.88135997 -203.95207257 232.8038426 -202.39648438 233.7109375 C-195.86335797 237.90392409 -193.47620196 242.80393363 -190.6635437 249.91424561 C-189.81762691 252.01766113 -188.91955429 254.09264811 -188.00805664 256.16845703 C-186.31206832 260.03185015 -184.65469382 263.91008836 -183.01367188 267.79711914 C-182.33303119 269.4021656 -181.64641524 271.00469019 -180.95410156 272.60473633 C-179.93727109 274.95609711 -178.93946834 277.3147593 -177.9453125 279.67578125 C-177.48138596 280.73385735 -177.48138596 280.73385735 -177.00808716 281.81330872 C-174.97503582 286.72095923 -174.41645161 290.55718106 -174.875 295.875 C-175.535 296.865 -176.195 297.855 -176.875 298.875 C-179.49962244 299.14197888 -181.88565933 299.22332984 -184.5078125 299.16796875 C-185.25964813 299.16372391 -186.01148376 299.15947906 -186.78610229 299.15510559 C-189.19109685 299.1382917 -191.59525809 299.10063624 -194 299.0625 C-195.62889416 299.04745659 -197.25780144 299.03376758 -198.88671875 299.02148438 C-202.88313434 298.98837954 -206.87892582 298.93658009 -210.875 298.875 C-219.72860386 283.45452063 -219.72860386 283.45452063 -223.375 276.625 C-223.72046875 275.98949219 -224.0659375 275.35398437 -224.421875 274.69921875 C-226.875 270.11421131 -226.875 270.11421131 -226.875 267.875 C-227.42961914 268.02646484 -227.98423828 268.17792969 -228.55566406 268.33398438 C-231.07739534 269.01952404 -233.60114266 269.69733148 -236.125 270.375 C-236.99769531 270.61347656 -237.87039062 270.85195313 -238.76953125 271.09765625 C-239.61386719 271.32324219 -240.45820313 271.54882812 -241.328125 271.78125 C-242.10317383 271.99072266 -242.87822266 272.20019531 -243.67675781 272.41601562 C-245.875 272.875 -245.875 272.875 -249.875 272.875 C-249.91383301 273.67502441 -249.95266602 274.47504883 -249.99267578 275.29931641 C-250.63719246 286.59777142 -251.94766236 297.792949 -253.34912109 309.02001953 C-253.75167928 312.26353039 -254.13970383 315.50858286 -254.52734375 318.75390625 C-254.78557388 320.84385947 -255.0446584 322.93370734 -255.3046875 325.0234375 C-255.41730927 325.97987152 -255.52993103 326.93630554 -255.64596558 327.92172241 C-256.40665244 333.86729294 -257.75179355 339.26798854 -259.875 344.875 C-264.69880802 344.8996519 -269.52257967 344.91783693 -274.34643555 344.92993164 C-275.98869464 344.93497174 -277.63094923 344.94180378 -279.27319336 344.95043945 C-281.62875479 344.96251926 -283.98425709 344.96823139 -286.33984375 344.97265625 C-287.07839096 344.97781754 -287.81693817 344.98297882 -288.5778656 344.98829651 C-290.34398088 344.9884925 -292.10997146 344.93694719 -293.875 344.875 C-295.76176726 342.98823274 -295.04824305 339.81595511 -295.06054688 337.3046875 C-295.04046697 326.15711986 -293.92330776 315.09158764 -292.90625 304 C-292.70385129 301.73605763 -292.50207995 299.4720591 -292.30090332 297.20800781 C-291.7744816 291.30244612 -291.23964489 285.39767699 -290.70294189 279.49304199 C-290.154865 273.44634515 -289.61490217 267.39892413 -289.07421875 261.3515625 C-288.01567042 249.52532655 -286.94821442 237.69991342 -285.875 225.875 C-286.58708366 226.46303909 -286.58708366 226.46303909 -287.31355286 227.06295776 C-289.50665632 228.87337572 -291.70058915 230.68278594 -293.89453125 232.4921875 C-294.64093872 233.10860107 -295.38734619 233.72501465 -296.15637207 234.36010742 C-300.92100995 238.28818609 -305.71784502 242.17104085 -310.5625 246 C-311.38325012 246.65029175 -311.38325012 246.65029175 -312.22058105 247.3137207 C-322.74225295 255.5583801 -322.74225295 255.5583801 -330.484375 255.1875 C-336.31540372 254.42527402 -340.03445368 251.42706189 -343.60546875 246.9609375 C-345.89426653 243.20026669 -346.98223039 239.2714458 -346.875 234.875 C-345.02104585 228.96317366 -342.75503004 224.89812943 -338.66821289 220.29125977 C-337.8842138 219.38500052 -337.8842138 219.38500052 -337.08437634 218.46043301 C-330.23159074 210.60659078 -323.1293488 202.98038336 -315.9375 195.4375 C-314.90350885 194.34756304 -314.90350885 194.34756304 -313.848629 193.23560715 C-284.082858 162.01718336 -284.082858 162.01718336 -262.97727966 160.90379333 C-254.29650532 160.91407634 -245.84533639 162.41027844 -237.31137085 163.86029053 C-232.38890355 164.46453302 -232.38890355 164.46453302 -227.92678833 162.64315796 C-224.43594701 159.20572165 -222.14999798 155.2146114 -219.95811462 150.87025452 C-218.21142002 147.65258925 -215.95906582 144.92910184 -213.6875 142.0625 C-210.36955196 137.27643335 -208.92824444 134.09570716 -209.8515625 128.2890625 C-209.9166879 121.58114588 -205.19751992 116.37524946 -201.04833984 111.57861328 C-200.45839957 110.88673636 -199.8684593 110.19485945 -199.26064205 109.48201656 C-191.48910231 100.44319429 -183.43322163 91.6661415 -175.25 83 C-174.45945599 82.16022991 -173.66891197 81.32045982 -172.85441208 80.45524216 C-139.6413134 45.40591789 -139.6413134 45.40591789 -120.49260712 44.66703415 C-113.54802043 44.61858963 -106.79030156 45.28924168 -99.91524506 46.2076416 C-80.86351005 49.17348622 -80.86351005 49.17348622 -63.54248047 42.47705078 C-50.56132508 32.46106633 -39.54400056 19.43560768 -29.55406189 6.5080719 C-21.48526551 -3.75075778 -11.76631998 -7.39166255 0 0 Z M-201.875 144.875 C-208.50603204 153.61539587 -215.02545865 162.3798055 -221.1328125 171.49609375 C-222.875 173.875 -222.875 173.875 -224.875 174.875 C-226.69934082 174.64292908 -226.69934082 174.64292908 -228.95507812 174.15991211 C-245.71997085 170.92956598 -265.98519917 168.41411482 -280.92358398 178.42407227 C-291.31440103 185.99352158 -300.30535234 195.26167638 -309.125 204.5625 C-310.09876083 205.58333742 -310.09876083 205.58333742 -311.0921936 206.62479782 C-315.47274817 211.23113138 -319.77661478 215.89987538 -324.015625 220.63671875 C-324.57702934 221.2617202 -325.13843369 221.88672165 -325.71685028 222.53066254 C-327.28985681 224.29940307 -328.83730841 226.08686532 -330.37597656 227.88549805 C-330.83673836 228.40468276 -331.29750015 228.92386747 -331.77222443 229.45878506 C-333.93745311 232.05458345 -334.85428809 233.71531457 -335.29290771 237.09700012 C-335.10651959 240.06632212 -335.10651959 240.06632212 -332.6875 242.3125 C-330.06089607 244.1098799 -330.06089607 244.1098799 -327.48828125 243.69140625 C-324.42999038 242.73597607 -322.69637945 241.43683151 -320.25 239.375 C-319.3734375 238.64667969 -318.496875 237.91835938 -317.59375 237.16796875 C-316.6965625 236.41128906 -315.799375 235.65460938 -314.875 234.875 C-313.1686509 233.47674171 -311.46027087 232.08095865 -309.75 230.6875 C-308.84636719 229.94628906 -307.94273437 229.20507812 -307.01171875 228.44140625 C-302.53219067 224.77098833 -298.03161292 221.1263654 -293.53271484 217.47973633 C-292.88641113 216.95532959 -292.24010742 216.43092285 -291.57421875 215.890625 C-290.94845947 215.38547363 -290.3227002 214.88032227 -289.67797852 214.35986328 C-288.49960793 213.3894029 -287.33754435 212.39870229 -286.19506836 211.38623047 C-283.23265124 208.77241471 -282.13070006 207.90015083 -278.0625 207.5 C-274.875 207.875 -274.875 207.875 -273.875 208.875 C-273.3911997 215.92434043 -274.12696077 223.01161979 -274.79296875 230.02514648 C-274.93927231 231.62480255 -274.93927231 231.62480255 -275.08853149 233.2567749 C-275.29934584 235.55564379 -275.5122185 237.85432468 -275.72695923 240.15283012 C-276.0673657 243.79819993 -276.40197421 247.44406192 -276.73510742 251.09010315 C-277.56340553 260.14306439 -278.40109788 269.19515096 -279.23937988 278.24719238 C-279.94848828 285.90723157 -280.65357227 293.56761983 -281.35317993 301.22853279 C-281.68157893 304.80658118 -282.01585778 308.38404871 -282.3503418 311.96153259 C-282.55287084 314.172814 -282.75511546 316.38412149 -282.95703125 318.59545898 C-283.09729233 320.06946922 -283.09729233 320.06946922 -283.24038696 321.57325745 C-283.66968578 326.34189129 -283.98582996 331.10591504 -284.11987305 335.89247131 C-284.1463945 336.77682389 -284.17291595 337.66117647 -284.20024109 338.57232761 C-284.05808323 340.94013875 -284.05808323 340.94013875 -282.50105286 342.6680975 C-280.30853024 344.29544991 -278.88487995 344.17977739 -276.1875 344.0625 C-274.75 344 -273.3125 343.9375 -271.875 343.875 C-267.69773907 336.30859111 -266.74513664 328.69035035 -265.8046875 320.20703125 C-265.63726731 318.79920113 -265.46838674 317.391544 -265.29812622 315.98405457 C-264.85600553 312.30365394 -264.42990576 308.62159637 -264.00842285 304.93878174 C-263.33074192 299.03508282 -262.6316052 293.13393761 -261.92645645 287.23346519 C-261.68429789 285.18355885 -261.45097058 283.13279064 -261.21871948 281.08174133 C-260.9980632 279.20400276 -260.9980632 279.20400276 -260.77294922 277.28833008 C-260.64733612 276.19184647 -260.52172302 275.09536285 -260.39230347 273.96565247 C-259.85151127 270.73466556 -259.1489073 267.89569679 -257.875 264.875 C-255.39765798 263.63917155 -253.48606085 262.92202024 -250.85546875 262.25 C-250.15988358 262.05398193 -249.4642984 261.85796387 -248.74763489 261.65600586 C-247.27736005 261.24768369 -245.80360982 260.85170147 -244.3269043 260.46728516 C-242.07215987 259.87752667 -239.83285017 259.2450663 -237.59179688 258.60546875 C-236.15956218 258.21354923 -234.72663726 257.82414161 -233.29296875 257.4375 C-232.62508835 257.24913574 -231.95720795 257.06077148 -231.26908875 256.86669922 C-228.29616912 256.11167801 -226.11445921 255.82244041 -223.10205078 256.48364258 C-220.36059937 258.19637351 -219.36781736 259.74264762 -217.82421875 262.57421875 C-217.02927002 264.00761597 -217.02927002 264.00761597 -216.21826172 265.4699707 C-215.67186035 266.49050537 -215.12545898 267.51104004 -214.5625 268.5625 C-213.99289551 269.59656982 -213.42329102 270.63063965 -212.83642578 271.69604492 C-210.2949869 276.32702331 -207.8076508 280.98527901 -205.35546875 285.6640625 C-204.99300049 286.35411377 -204.63053223 287.04416504 -204.25708008 287.75512695 C-203.31316789 289.56629422 -202.38641963 291.38637754 -201.4609375 293.20703125 C-199.9983548 296.10461105 -199.9983548 296.10461105 -196.875 297.875 C-192.28077752 297.62440605 -189.29465498 297.02108258 -185.875 293.875 C-186.48779572 288.49845346 -188.28738807 284.03802276 -190.40234375 279.1171875 C-190.92581139 277.87897751 -190.92581139 277.87897751 -191.45985413 276.61575317 C-192.57134312 273.99121579 -193.6919347 271.37067302 -194.8125 268.75 C-195.56241635 266.98070913 -196.3117712 265.21118016 -197.06054688 263.44140625 C-198.43549769 260.20028226 -199.81066533 256.95926713 -201.19506836 253.72216797 C-201.47184921 253.07408173 -201.74863007 252.42599548 -202.03379822 251.75827026 C-202.31139481 251.13679108 -202.58899139 250.51531189 -202.875 249.875 C-203.18728043 249.17545197 -203.49956085 248.47590393 -203.82130432 247.75515747 C-205.41977005 244.90294184 -207.7592756 243.72769715 -210.5 242 C-211.56992188 241.29746094 -212.63984375 240.59492188 -213.7421875 239.87109375 C-215.61756637 238.67618278 -217.51333349 237.51120812 -219.4453125 236.41015625 C-221.67595472 235.03099574 -223.20584195 233.89784379 -224.875 231.875 C-225.20117188 229.56176758 -225.20117188 229.56176758 -225.09375 226.89453125 C-225.06249023 225.91524658 -225.03123047 224.93596191 -224.99902344 223.92700195 C-224.93763184 222.41626099 -224.93763184 222.41626099 -224.875 220.875 C-224.87274414 219.93809326 -224.87048828 219.00118652 -224.86816406 218.03588867 C-224.81983059 202.54366669 -221.73808134 192.38104128 -212.45898438 180.01074219 C-210.03787039 176.74626852 -207.84591008 173.33962404 -205.625 169.9375 C-203.26721497 166.39443215 -200.88074711 162.87416012 -198.44140625 159.38671875 C-197.69761719 158.31035156 -196.95382813 157.23398438 -196.1875 156.125 C-195.52363281 155.18140625 -194.85976562 154.2378125 -194.17578125 153.265625 C-193.74652344 152.47671875 -193.31726563 151.6878125 -192.875 150.875 C-193.51567976 147.78740441 -193.51567976 147.78740441 -195.72265625 146.92578125 C-196.45355469 146.68214844 -197.18445313 146.43851563 -197.9375 146.1875 C-198.67097656 145.93613281 -199.40445313 145.68476563 -200.16015625 145.42578125 C-200.72605469 145.24402344 -201.29195312 145.06226563 -201.875 144.875 Z " fill="#F8A129" transform="translate(372.875,50.125)"/>
<path d="M0 0 C1.22237869 -0.00525696 1.22237869 -0.00525696 2.4694519 -0.01062012 C5.16591891 -0.01942993 7.86212402 -0.01359095 10.55859375 -0.00683594 C12.43042044 -0.0081828 14.30224678 -0.01012352 16.17407227 -0.01263428 C20.09817839 -0.01558452 24.02219351 -0.01129108 27.94628906 -0.00195312 C32.98040511 0.00944134 38.01430791 0.00288134 43.04841614 -0.00909805 C46.91395682 -0.01631933 50.77944681 -0.01402749 54.64498901 -0.00884247 C56.50137355 -0.00750671 58.35776266 -0.0091511 60.21414185 -0.01380157 C62.80694806 -0.01887118 65.39940719 -0.0111505 67.9921875 0 C68.76215057 -0.00404846 69.53211365 -0.00809692 70.32540894 -0.01226807 C74.09255108 0.01779991 75.7810961 0.1154573 78.99609375 2.25878906 C80.28756026 5.52443566 80.15289027 6.89143722 78.765625 10.14160156 C78.11980469 11.21152344 77.47398437 12.28144531 76.80859375 13.38378906 C76.46070801 13.97345459 76.11282227 14.56312012 75.75439453 15.1706543 C73.51275051 18.92485461 71.13504891 22.57991851 68.71875 26.22363281 C68.16533936 27.06845215 67.61192871 27.91327148 67.04174805 28.78369141 C65.93930499 30.45821911 64.81990853 32.12172319 63.68286133 33.77294922 C63.1752124 34.54300293 62.66756348 35.31305664 62.14453125 36.10644531 C61.68224121 36.78715088 61.21995117 37.46785645 60.74365234 38.16918945 C59.76218396 40.28781855 59.76218396 40.28781855 60.63305664 42.63671875 C62.19043246 45.63263785 63.87224227 48.49678047 65.65625 51.36425781 C66.00618515 51.9295369 66.3561203 52.49481598 66.71665955 53.07722473 C67.82694321 54.86923735 68.9425444 56.65786276 70.05859375 58.44628906 C71.17712403 60.24608193 72.29454564 62.04655567 73.41123962 63.8474884 C74.42071001 65.47433721 75.43306196 67.09939693 76.44555664 68.72436523 C78.97448738 72.8580182 79.3469574 75.34669794 78.99609375 80.25878906 C75.39691647 82.65824059 72.8317985 82.52850666 68.67895508 82.48583984 C67.93724564 82.4861319 67.19553619 82.48642395 66.43135071 82.48672485 C63.9801564 82.4853317 61.5292662 82.46977133 59.078125 82.45410156 C57.37847561 82.45037138 55.67882406 82.44752443 53.97917175 82.44552612 C49.50584984 82.43789008 45.03265781 82.41824185 40.55938721 82.39611816 C35.99468747 82.3756591 31.42996675 82.36652428 26.86523438 82.35644531 C17.9087971 82.33499593 8.95245623 82.30086033 -0.00390625 82.25878906 C-0.00168564 83.12100571 0.00053497 83.98322235 0.00282288 84.87156677 C0.0228237 92.97984942 0.03806681 101.08812384 0.04790592 109.19642544 C0.05313426 113.36541734 0.06023101 117.53438893 0.0715332 121.70336914 C0.08236383 125.72336592 0.08837096 129.74334311 0.09097099 133.76335335 C0.09282493 135.30041881 0.09644494 136.83748316 0.10182381 138.37454033 C0.10903659 140.52014393 0.11008459 142.66566561 0.10961914 144.8112793 C0.11183975 146.03483627 0.11406036 147.25839325 0.11634827 148.51902771 C-0.00390625 151.25878906 -0.00390625 151.25878906 -1.00390625 152.25878906 C-2.68999591 152.33084418 -4.37891284 152.34264974 -6.06640625 152.32128906 C-6.98550781 152.31226563 -7.90460938 152.30324219 -8.8515625 152.29394531 C-9.91697266 152.27654297 -9.91697266 152.27654297 -11.00390625 152.25878906 C-11.07391062 132.73578376 -11.12685229 113.21280385 -11.15934277 93.68969917 C-11.17482797 84.62528418 -11.19594895 75.56094705 -11.23022461 66.49658203 C-11.26007649 58.59835729 -11.27946921 50.70018892 -11.28617173 42.80190933 C-11.29009117 38.61774778 -11.29933641 34.43374757 -11.32109642 30.2496376 C-11.34139522 26.3147717 -11.34775356 22.38013423 -11.34322929 18.44522095 C-11.34405747 16.99797196 -11.35006248 15.55071566 -11.36152267 14.10351181 C-11.37636172 12.13368954 -11.37109236 10.16374586 -11.3646698 8.19387817 C-11.36743518 7.08957018 -11.37020056 5.98526218 -11.37304974 4.84749031 C-11.25123239 3.9932189 -11.12941504 3.13894749 -11.00390625 2.25878906 C-7.25696628 -0.23917092 -4.33720813 -0.02280502 0 0 Z M-0.00390625 11.25878906 C-0.00390625 31.05878906 -0.00390625 50.85878906 -0.00390625 71.25878906 C21.11609375 71.25878906 42.23609375 71.25878906 63.99609375 71.25878906 C59.97090901 63.8792837 55.95027228 56.85420411 51.2578125 49.93652344 C50.62166016 48.9571582 50.62166016 48.9571582 49.97265625 47.95800781 C49.59189941 47.38912842 49.21114258 46.82024902 48.81884766 46.23413086 C47.64659773 43.4196875 47.70674707 41.28242596 47.99609375 38.25878906 C49.1418457 35.74511719 49.1418457 35.74511719 50.734375 33.29003906 C51.30736328 32.38898438 51.88035156 31.48792969 52.47070312 30.55957031 C53.07720703 29.6353125 53.68371094 28.71105469 54.30859375 27.75878906 C55.49441105 25.91646836 56.67806744 24.07275468 57.859375 22.22753906 C58.38829346 21.41736328 58.91721191 20.6071875 59.4621582 19.77246094 C61.13699142 17.02789897 62.55820038 14.1345758 63.99609375 11.25878906 C42.87609375 11.25878906 21.75609375 11.25878906 -0.00390625 11.25878906 Z " fill="#F9A22A" transform="translate(406.00390625,35.7412109375)"/>
<path d="M0 0 C1.78076172 2.21728516 1.78076172 2.21728516 3.0546875 5.1640625 C3.78316895 6.79649902 3.78316895 6.79649902 4.52636719 8.46191406 C5.01266602 9.62948242 5.49896484 10.79705078 6 12 C6.75651855 13.73975098 6.75651855 13.73975098 7.52832031 15.51464844 C9.35413342 19.74327323 11.13465555 23.98982177 12.90087891 28.24365234 C13.66032151 30.06832446 14.42773679 31.88967175 15.1953125 33.7109375 C15.63891113 34.77618652 16.08250977 35.84143555 16.53955078 36.93896484 C18.08875868 40.18603416 20.00493103 43.01300217 22 46 C22 46.66 22 47.32 22 48 C23.32 48.66 24.64 49.32 26 50 C20.72 50 15.44 50 10 50 C4.00385929 37.46261488 -1.59984309 24.80463184 -7 12 C-7.64549805 12.18175781 -8.29099609 12.36351562 -8.95605469 12.55078125 C-11.885902 13.37252915 -14.81789642 14.18634126 -17.75 15 C-19.27367187 15.42925781 -19.27367187 15.42925781 -20.828125 15.8671875 C-21.8078125 16.13789063 -22.7875 16.40859375 -23.796875 16.6875 C-24.69760742 16.93886719 -25.59833984 17.19023437 -26.52636719 17.44921875 C-29 18 -29 18 -33 18 C-33.04689972 18.63513016 -33.09379944 19.27026031 -33.14212036 19.92463684 C-33.76707296 27.5914706 -34.89896276 35.11718045 -36.1796875 42.69921875 C-36.39311798 43.97424759 -36.60654846 45.24927643 -36.82644653 46.5629425 C-37.27573116 49.24176584 -37.72835904 51.9199991 -38.18310547 54.59790039 C-38.76180078 58.00887784 -39.3292586 61.42162108 -39.89390373 64.83494854 C-40.44023344 68.12427245 -40.99817804 71.41160194 -41.5546875 74.69921875 C-41.75480438 75.91397385 -41.95492126 77.12872894 -42.16110229 78.3802948 C-43.22720977 84.58510361 -44.53439196 90.2005932 -47 96 C-51.95 96 -56.9 96 -62 96 C-60.68 94.68 -59.36 93.36 -58 92 C-54.81414838 84.46398975 -53.98967244 75.80644087 -52.7067852 67.76686478 C-52.36293403 65.61294927 -52.01158751 63.46036629 -51.65846252 61.30795288 C-50.91167137 56.74800892 -50.17392885 52.18662732 -49.4375 47.625 C-48.57969611 42.3124107 -47.71809625 37.00049262 -46.84694099 31.69007492 C-46.5021951 29.57646933 -46.16433804 27.46183792 -45.82676697 25.34707642 C-45.61637283 24.06158905 -45.4059787 22.77610168 -45.18920898 21.45166016 C-45.007285 20.32345856 -44.82536102 19.19525696 -44.63792419 18.03286743 C-44.0265642 15.12629354 -43.32872952 12.65546398 -42 10 C-39.59557985 8.64751367 -37.60361296 7.83702929 -35 7 C-33.98292969 6.67193359 -32.96585937 6.34386719 -31.91796875 6.00585938 C-28.29053475 4.87610299 -24.64905986 3.80769851 -21 2.75 C-19.75476563 2.37359375 -18.50953125 1.9971875 -17.2265625 1.609375 C-16.01742187 1.25875 -14.80828125 0.908125 -13.5625 0.546875 C-11.92474609 0.06492676 -11.92474609 0.06492676 -10.25390625 -0.42675781 C-6.42953484 -1.10049911 -3.74570251 -1.04973327 0 0 Z " fill="#F9A129" transform="translate(307,206)"/>
<path d="M0 0 C2.66091428 1.78553725 4.7155137 3.76953479 6.79296875 6.203125 C7.84484375 7.2859375 7.84484375 7.2859375 8.91796875 8.390625 C14.51892981 16.79206659 15.04418053 26.84279847 13.13671875 36.5390625 C10.18465 47.45662711 4.48998017 55.30059631 -5.20703125 61.203125 C-11.22098258 63.20777544 -18.05500667 63.34220147 -24.0390625 61.1796875 C-32.56619298 56.43802662 -38.21868284 49.0623158 -41.484375 39.9296875 C-44.16068889 29.83202752 -44.13185184 19.0743725 -38.84375 9.81640625 C-29.82676345 -2.78873515 -14.26053428 -7.59848356 0 0 Z M-28.45703125 14.453125 C-32.1442236 20.2472844 -32.69269787 25.9413792 -31.80859375 32.61328125 C-30.05001342 40.18431215 -26.58073601 45.81235061 -20.20703125 50.203125 C-17.09749746 51.7578919 -14.64436364 51.48956937 -11.20703125 51.203125 C-4.12243756 47.45245775 -0.70574341 42.21833698 2.0234375 34.87890625 C3.89994482 28.353995 3.47790076 23.03259067 0.73046875 16.828125 C-1.34668733 13.14826074 -3.23325976 10.54254954 -7.1171875 8.7578125 C-15.95531776 6.41199101 -22.03711759 8.03321134 -28.45703125 14.453125 Z " fill="#F9A129" transform="translate(286.20703125,29.796875)"/>
<path d="M0 0 C6.27263135 4.48856772 9.76362152 9.94681339 11.15625 17.54296875 C12.32973251 28.95907021 10.0957079 38.82631433 2.80078125 47.8203125 C-1.42714923 52.24909478 -5.79047159 55.15337452 -11.95703125 55.74609375 C-19.60052656 55.90901017 -25.42436514 53.67388476 -31.13671875 48.5546875 C-38.95464836 39.34133796 -40.56906587 29.17539308 -39.84375 17.54296875 C-38.6700192 10.45751128 -35.24882608 5.21962637 -29.84375 0.54296875 C-20.8990291 -5.65893734 -9.24612102 -5.35854741 0 0 Z M-26.09765625 13.2734375 C-29.35682249 18.96278345 -29.84312411 24.33790999 -28.3359375 30.6796875 C-26.50658761 36.19927768 -23.62618611 40.40976773 -18.96875 43.98046875 C-15.63759074 44.8622462 -13.16656116 44.35909781 -9.84375 43.54296875 C-4.9014938 40.55462779 -1.92466325 36.12215171 -0.25390625 30.58984375 C1.00396283 24.31247804 0.62135631 18.87905155 -2.58984375 13.2734375 C-5.11111645 9.79392408 -7.75486159 7.9029926 -12.01953125 7.16796875 C-18.06281029 6.84295206 -22.38696578 8.15245345 -26.09765625 13.2734375 Z " fill="#F9A129" transform="translate(136.84375,152.45703125)"/>
</svg>
