<?xml version="1.0" encoding="UTF-8"?>
<svg version="1.1" xmlns="http://www.w3.org/2000/svg" width="512" height="512">
<path d="M0 0 C1.22807408 -0.00445668 1.22807408 -0.00445668 2.48095775 -0.0090034 C5.22215849 -0.01766943 7.96331546 -0.01919687 10.70452881 -0.02069092 C12.67093499 -0.02532057 14.63734027 -0.03034542 16.60374451 -0.03573608 C21.94479114 -0.04884773 27.28582521 -0.05530261 32.62688541 -0.05974674 C35.96495037 -0.06267939 39.3030119 -0.06678456 42.64107513 -0.07125092 C53.08860166 -0.08492244 63.53612036 -0.09459085 73.98365521 -0.09845281 C86.03737254 -0.10293318 98.09097644 -0.12048163 110.14465928 -0.1494534 C119.4662697 -0.17107958 128.78784824 -0.18115759 138.10948348 -0.18249393 C143.67484254 -0.18354125 149.24009494 -0.18943388 154.80542755 -0.20731354 C160.0421283 -0.22381039 165.27864238 -0.22594182 170.51535988 -0.21717453 C172.43375715 -0.21640503 174.35216453 -0.22073535 176.27053642 -0.23063278 C178.89696817 -0.24338504 181.52274198 -0.23745785 184.14916992 -0.22705078 C185.27785158 -0.23913539 185.27785158 -0.23913539 186.42933488 -0.25146413 C195.86278043 -0.16451997 202.66273517 2.95651811 209.4262085 9.44903564 C213.68276424 14.21776232 216.73706209 19.57906015 219.82855225 25.14044189 C220.73389833 26.7294989 221.64020235 28.31801039 222.54730225 29.90606689 C223.47602606 31.54576381 224.40312298 33.18638331 225.32855225 34.82794189 C225.77456787 35.61870117 226.2205835 36.40946045 226.68011475 37.22418213 C227.09003662 37.96354004 227.4999585 38.70289795 227.92230225 39.46466064 C228.47434326 40.45598999 228.47434326 40.45598999 229.03753662 41.46734619 C229.82855225 43.14044189 229.82855225 43.14044189 229.82855225 45.14044189 C230.69546881 45.13675472 231.56238537 45.13306755 232.45557213 45.12926865 C253.57240109 45.04084105 274.68919803 44.97469502 295.80617332 44.93319321 C306.01829055 44.91258857 316.23028401 44.88450812 326.44232178 44.83868408 C335.34557036 44.79875205 344.24872927 44.77299383 353.15206492 44.76408792 C357.86413783 44.75888395 362.57595427 44.74669657 367.28794479 44.71752167 C371.72846817 44.69025189 376.16863088 44.68202014 380.60923004 44.68801117 C382.23373249 44.68691608 383.85824774 44.67903124 385.48267746 44.66362 C395.40510812 44.57414868 404.24665473 44.86459194 412.449646 51.14825439 C413.04906006 51.84692627 413.64847412 52.54559814 414.26605225 53.26544189 C414.88351318 53.94864502 415.50097412 54.63184814 416.137146 55.33575439 C420.2810496 62.20716961 421.2745099 69.66147667 421.20950317 77.55181885 C421.21418315 78.44352185 421.21886312 79.33522486 421.22368491 80.25394917 C421.23555622 83.21236296 421.22620865 86.17030673 421.21673584 89.12872314 C421.22080503 91.26173165 421.22614886 93.39473805 421.23266602 95.52774048 C421.24630394 101.30041582 421.24105547 107.07292971 421.23152876 112.84560776 C421.22391392 118.89742201 421.23098284 124.94922278 421.23568726 131.0010376 C421.24113949 141.1624397 421.23396714 151.32377631 421.21966553 161.48516846 C421.20334009 173.21974467 421.20862897 184.95416449 421.22514474 196.68873692 C421.23877475 206.77819688 421.24067185 216.86760987 421.23282874 226.95707607 C421.22816057 232.97677103 421.22750384 238.99639257 421.2374382 245.01608276 C421.24612759 250.67639076 421.24004981 256.33649783 421.22275543 261.99678421 C421.21880114 264.0695627 421.21990644 266.14235821 421.22654343 268.21512985 C421.2347909 271.05333368 421.22439886 273.8909012 421.20950317 276.72906494 C421.21619534 277.54134206 421.2228875 278.35361917 421.22978246 279.19051075 C421.15083342 286.99256707 419.63115577 295.07910605 414.26605225 301.01544189 C413.66663818 301.71411377 413.06722412 302.41278564 412.449646 303.13262939 C403.69561142 309.83840253 394.09728489 309.68140167 383.53948975 309.53106689 C381.98437229 309.52359139 380.4292453 309.51790466 378.87411499 309.51391602 C374.81332644 309.4987624 370.75312507 309.45957193 366.69256592 309.4151001 C362.53615254 309.37392327 358.37964277 309.35585753 354.2230835 309.33575439 C346.09130589 309.29306541 337.96000245 309.22494191 329.82855225 309.14044189 C329.5847583 308.39641113 329.34096436 307.65238037 329.08978271 306.88580322 C328.75349854 305.9037793 328.41721436 304.92175537 328.07073975 303.90997314 C327.7444458 302.93906738 327.41815186 301.96816162 327.08197021 300.96783447 C325.40896387 297.19395709 323.05676421 294.82172595 320.02386475 292.08966064 C318.82855225 290.14044189 318.82855225 290.14044189 319.4574585 287.45684814 C320.1361499 285.81522705 320.1361499 285.81522705 320.82855225 284.14044189 C321.25914958 282.73122956 321.68185098 281.31958873 322.0980835 279.90606689 C325.08487825 270.80265023 325.08487825 270.80265023 327.82855225 267.14044189 C332.14917549 265.15603351 336.13538792 265.25660933 340.82855225 265.14044189 C347.20380058 263.44313552 350.26529768 259.82420393 353.699646 254.35919189 C355.53218894 250.7575158 355.95609899 247.5283223 356.0055542 243.51470947 C356.01838943 242.60308548 356.03122467 241.69146149 356.04444885 240.75221252 C356.05183578 239.77302353 356.05922272 238.79383453 356.0668335 237.78497314 C356.07490524 236.76876389 356.08297699 235.75255463 356.09129333 234.70555115 C356.10511569 232.55455217 356.1158461 230.40353143 356.12371826 228.25250244 C356.13522757 226.06168148 356.15566259 223.87088832 356.1852417 221.68023682 C356.22808633 218.50662265 356.24411203 215.33384128 356.2543335 212.15997314 C356.28059563 210.70637138 356.28059563 210.70637138 356.30738831 209.22340393 C356.28486648 202.08414109 355.08022248 195.64179795 350.07826233 190.25575256 C345.04078984 185.61955396 340.34842742 183.96592817 333.51605225 183.51544189 C332.44741943 183.44067627 331.37878662 183.36591064 330.277771 183.28887939 C329.06540771 183.21540283 329.06540771 183.21540283 327.82855225 183.14044189 C326.51178747 179.89215365 325.20089087 176.64152854 323.89105225 173.39044189 C323.33127686 172.00985596 323.33127686 172.00985596 322.76019287 170.60137939 C322.22362061 169.26719971 322.22362061 169.26719971 321.6762085 167.90606689 C321.34628906 167.08912354 321.01636963 166.27218018 320.67645264 165.43048096 C319.89389924 163.31693333 319.17512755 161.36859525 318.82855225 159.14044189 C320.4105835 156.99200439 320.4105835 156.99200439 322.64105225 154.76544189 C327.48037819 149.58829215 329.3701176 145.51272426 329.13719177 138.26229858 C327.96969405 130.23590324 323.05534876 124.62921684 317.465271 119.14825439 C316.75506302 118.43563446 316.04485504 117.72301453 315.31312561 116.98880005 C313.81886284 115.49551087 312.31843947 114.00836315 310.81219482 112.52716064 C308.51713086 110.26650434 306.2471394 107.98270802 303.97894287 105.69512939 C302.51748259 104.24056586 301.05463775 102.78739184 299.590271 101.33575439 C298.91711349 100.65763702 298.24395599 99.97951965 297.55039978 99.28085327 C292.18370112 94.04546314 287.17257687 90.71450434 279.39105225 90.70294189 C274.09870639 90.86265604 270.13335422 92.0401946 265.82855225 95.14044189 C264.96230225 96.06856689 264.09605225 96.99669189 263.20355225 97.95294189 C262.02792725 99.03575439 262.02792725 99.03575439 260.82855225 100.14044189 C256.03577637 99.82184697 252.06452856 98.12911826 247.70355225 96.20294189 C246.50472412 95.67829346 245.305896 95.15364502 244.07073975 94.61309814 C243.00081787 94.12712158 241.930896 93.64114502 240.82855225 93.14044189 C240.04866943 92.87618408 239.26878662 92.61192627 238.465271 92.33966064 C236.82855225 91.14044189 236.82855225 91.14044189 236.105896 88.31231689 C235.99374756 87.18309814 235.88159912 86.05387939 235.76605225 84.89044189 C234.73039149 76.91234339 232.85038057 72.62473444 226.74261475 67.43731689 C222.91571595 64.84439771 219.38792602 63.89093564 214.79803467 63.84991455 C213.33577705 63.83077499 213.33577705 63.83077499 211.84397888 63.81124878 C210.80119278 63.80902313 209.75840668 63.80679749 208.684021 63.80450439 C207.60026688 63.7978476 206.51651276 63.7911908 205.3999176 63.78433228 C203.10946344 63.77421908 200.81897989 63.76951484 198.52850342 63.76983643 C195.03882813 63.76547039 191.55042521 63.72915464 188.06097412 63.69122314 C185.83116072 63.68535318 183.60134133 63.68138499 181.371521 63.67950439 C180.33480759 63.66513336 179.29809418 63.65076233 178.22996521 63.63595581 C170.83187903 63.68220449 165.60029472 64.95120791 159.80511475 69.85137939 C154.38492601 76.52479096 153.46064719 82.72359864 152.82855225 91.14044189 C152.05511475 91.45497314 151.28167725 91.76950439 150.48480225 92.09356689 C145.67743904 94.0688696 140.95038512 96.01262193 136.39105225 98.51544189 C132.82855225 100.14044189 132.82855225 100.14044189 130.26605225 100.26544189 C127.19349274 98.84733751 125.07877125 96.8183471 122.57073975 94.57403564 C118.12458105 90.91542524 113.09141892 90.87935785 107.58636475 90.67950439 C99.7427404 91.99047843 94.35886377 97.00363296 88.934021 102.46856689 C87.86296867 103.53032135 87.86296867 103.53032135 86.77027893 104.61352539 C85.27209717 106.1046403 83.7789727 107.60085212 82.29071045 109.10186768 C80.0207946 111.38567053 77.72787253 113.64441885 75.43206787 115.90216064 C73.9729332 117.36034418 72.51520205 118.81993379 71.059021 120.28106689 C70.37776657 120.94906311 69.69651215 121.61705933 68.99461365 122.30529785 C63.68681228 127.71792024 61.24376252 132.40354942 60.39105225 140.07794189 C60.68514083 146.58625006 63.53803495 152.13014604 68.07855225 156.70294189 C68.98605225 157.50731689 69.89355225 158.31169189 70.82855225 159.14044189 C69.15929931 164.3505344 67.2007266 169.42508286 65.20355225 174.51544189 C64.71628662 175.76260986 64.71628662 175.76260986 64.21917725 177.03497314 C63.42362493 179.07065113 62.62671856 181.10578773 61.82855225 183.14044189 C60.668396 183.17911377 60.668396 183.17911377 59.48480225 183.21856689 C50.74317799 183.69459594 44.50966647 184.93524086 38.45355225 191.51544189 C33.39253484 197.48122219 33.52080701 204.29938187 33.527771 211.72637939 C33.52134331 213.25000595 33.52134331 213.25000595 33.51478577 214.80441284 C33.50905713 216.94766496 33.50853137 219.09093652 33.51287842 221.23419189 C33.51603494 224.4975535 33.49257214 227.76000493 33.46722412 231.02325439 C33.46495051 233.11179493 33.46424792 235.20033788 33.465271 237.28887939 C33.45606125 238.25683441 33.4468515 239.22478943 33.43736267 240.22207642 C33.48574437 247.37591869 34.72138607 252.70654145 38.51605225 258.89044189 C42.44775269 262.71588016 46.35422265 265.12190759 51.9574585 265.16387939 C55.87778809 265.20930616 58.28792719 265.39214818 61.82855225 267.14044189 C65.82666377 272.70221426 67.89967782 279.62718784 69.82855225 286.14044189 C70.04890137 286.85659668 70.26925049 287.57275146 70.49627686 288.31060791 C70.60592773 288.91445313 70.71557861 289.51829834 70.82855225 290.14044189 C69.5355835 291.89434814 69.5355835 291.89434814 67.64105225 293.70294189 C64.56996279 296.9140603 63.00799903 299.71489787 61.590271 303.91778564 C61.25342285 304.89868164 60.91657471 305.87957764 60.56951904 306.89019775 C60.325 307.63277832 60.08048096 308.37535889 59.82855225 309.14044189 C50.87446311 309.23349057 41.92054271 309.30438243 32.96607399 309.34769058 C28.80726559 309.36848582 24.64879016 309.39665393 20.49017334 309.44219971 C16.47010441 309.48594805 12.45035393 309.50963951 8.43006516 309.51995087 C6.90318165 309.52729065 5.37631379 309.54162244 3.84956741 309.56336212 C-6.02301779 309.69823439 -14.68741237 309.34132742 -22.7925415 303.13262939 C-23.6916626 302.08462158 -23.6916626 302.08462158 -24.60894775 301.01544189 C-25.22640869 300.33223877 -25.84386963 299.64903564 -26.4800415 298.94512939 C-30.97662027 291.48890871 -31.61017249 283.54470574 -31.55239868 275.02069092 C-31.55941864 273.40749663 -31.55941864 273.40749663 -31.56658041 271.76171255 C-31.57848414 268.18144758 -31.56909105 264.60156865 -31.55963135 261.02130127 C-31.56369909 258.44494911 -31.5690421 255.8685987 -31.57556152 253.29225159 C-31.58886228 247.03506705 -31.58603752 240.77799082 -31.5773236 234.52080214 C-31.570533 229.43292139 -31.56963627 224.34507087 -31.57289505 219.25718689 C-31.57335475 218.53150901 -31.57381445 217.80583113 -31.57428808 217.05816302 C-31.57524731 215.58370466 -31.57621995 214.10924631 -31.57720585 212.63478798 C-31.58574903 198.82693441 -31.57594248 185.01914072 -31.55980475 171.21129698 C-31.54640254 159.37791558 -31.54873093 147.54462248 -31.56256104 135.71124268 C-31.57863584 121.95091058 -31.58492515 108.19063088 -31.57572424 94.4302907 C-31.57476865 92.96142611 -31.57382554 91.49256151 -31.57289505 90.0236969 C-31.57243222 89.3010929 -31.5719694 88.5784889 -31.57149255 87.8339878 C-31.56890835 82.7555182 -31.57326131 77.67708199 -31.58033371 72.59861755 C-31.5896534 65.75640474 -31.58296505 58.91436102 -31.56565094 52.07216454 C-31.56169085 49.56399499 -31.56281192 47.05581139 -31.56943893 44.54764748 C-31.57766311 41.11830808 -31.56732161 37.6894987 -31.55239868 34.26019287 C-31.55909085 33.27282308 -31.56578301 32.28545329 -31.57267797 31.2681632 C-31.49335238 21.83946302 -29.76267636 13.76643695 -23.1362915 6.83184814 C-16.22659837 0.88374253 -8.86406232 -0.01008771 0 0 Z " fill="#357BBF" transform="translate(61.17144775390625,126.85955810546875)"/>
<path d="M0 0 C1.41199173 -0.0238678 1.41199173 -0.0238678 2.85250854 -0.04821777 C3.86298248 -0.04841919 4.87345642 -0.04862061 5.91455078 -0.04882812 C6.96007111 -0.05644165 8.00559143 -0.06405518 9.08279419 -0.07189941 C11.2934531 -0.08269971 13.50416304 -0.08555382 15.71484375 -0.08105469 C19.0908767 -0.08008359 22.46462792 -0.12168272 25.84033203 -0.16601562 C27.99006688 -0.17122366 30.13980962 -0.1739108 32.28955078 -0.17382812 C33.799189 -0.19842102 33.799189 -0.19842102 35.33932495 -0.22351074 C39.87694056 -0.17895293 43.20927027 -0.11638952 46.85644531 2.76953125 C49.84364707 6.09832023 50.36312939 8.33440052 50.33251953 12.65039062 C50.32929688 13.45283203 50.32607422 14.25527344 50.32275391 15.08203125 C50.314375 15.91541016 50.30599609 16.74878906 50.29736328 17.60742188 C50.29285156 18.45240234 50.28833984 19.29738281 50.28369141 20.16796875 C50.27191731 22.25198342 50.25398218 24.33596164 50.23486328 26.41992188 C51.73146484 26.58427734 51.73146484 26.58427734 53.25830078 26.75195312 C57.32314524 27.33687424 61.04467014 28.62258486 64.85986328 30.10742188 C65.88950195 30.50018311 65.88950195 30.50018311 66.93994141 30.90087891 C73.50991148 33.44727312 79.88971394 36.35599702 86.23486328 39.41992188 C86.91033203 38.72125 87.58580078 38.02257812 88.28173828 37.30273438 C89.61978516 35.93761719 89.61978516 35.93761719 90.98486328 34.54492188 C92.30744141 33.18753906 92.30744141 33.18753906 93.65673828 31.80273438 C97.57275334 28.18338712 100.65984452 26.74049564 106.13012695 26.93286133 C108.6740349 27.52155131 109.74501273 28.3853325 111.66064453 30.15039062 C112.35335449 30.78630127 113.04606445 31.42221191 113.75976562 32.07739258 C114.57654785 32.85042725 115.39333008 33.62346191 116.23486328 34.41992188 C116.96579193 35.10361343 116.96579193 35.10361343 117.71148682 35.80111694 C121.14479161 39.01481847 124.53202018 42.27160985 127.8918457 45.56201172 C129.08353133 46.72183409 130.28319216 47.87351553 131.49047852 49.01708984 C133.25703474 50.69212828 134.99569721 52.39224015 136.73095703 54.09960938 C137.53864784 54.85007034 137.53864784 54.85007034 138.36265564 55.61569214 C142.00281047 59.27515331 142.93745981 62.25260776 143.34999084 67.3742981 C143.00355048 73.5299625 137.02352279 77.66632684 132.74658203 81.49023438 C132.24771484 82.12703125 131.74884766 82.76382813 131.23486328 83.41992188 C131.67596691 86.21321779 132.683297 88.55673581 133.94189453 91.07226562 C134.27962891 91.76046387 134.61736328 92.44866211 134.96533203 93.15771484 C135.32240234 93.88361816 135.67947266 94.60952148 136.04736328 95.35742188 C144.23486328 112.35013951 144.23486328 112.35013951 144.23486328 120.41992188 C145.53681641 120.36191406 146.83876953 120.30390625 148.18017578 120.24414062 C149.90670229 120.19722414 151.63326776 120.15172601 153.35986328 120.10742188 C154.21580078 120.06552734 155.07173828 120.02363281 155.95361328 119.98046875 C160.30321386 119.89682258 163.30453442 119.9741472 166.78955078 122.75195312 C169.87761783 126.121202 170.35718613 128.393015 170.39599609 132.79614258 C170.40560364 133.67748367 170.41521118 134.55882477 170.42510986 135.46687317 C170.43148468 136.891894 170.43148468 136.891894 170.43798828 138.34570312 C170.44368835 139.32605026 170.44938843 140.3063974 170.45526123 141.31645203 C170.46470932 143.39186525 170.47124445 145.46729346 170.47509766 147.54272461 C170.48479384 150.70974071 170.51581542 153.87610522 170.54736328 157.04296875 C170.5538945 159.06054303 170.5591445 161.07812194 170.56298828 163.09570312 C170.57533508 164.03964432 170.58768188 164.98358551 170.60040283 165.95613098 C170.58282034 171.175035 170.26297904 174.95776032 167.23486328 179.41992188 C162.05265736 182.47543761 157.71410969 182.81854091 151.79736328 182.60742188 C151.06582031 182.59388672 150.33427734 182.58035156 149.58056641 182.56640625 C147.79833906 182.53146062 146.01649755 182.47766992 144.23486328 182.41992188 C144.09951172 183.10054687 143.96416016 183.78117188 143.82470703 184.48242188 C141.54976847 194.72645659 137.59957504 204.5316763 132.39111328 213.64648438 C130.96573482 216.27394926 130.96573482 216.27394926 131.79736328 218.54492188 C133.45905359 220.71234401 135.24563399 222.54770607 137.23486328 224.41992188 C141.07293434 228.03222405 143.02008203 230.48689058 143.60986328 235.79492188 C142.90147684 242.6426575 137.84520287 247.12658868 133.18408203 251.80664062 C132.60705032 252.39032913 132.03001862 252.97401764 131.4355011 253.57539368 C130.22028904 254.80067669 129.00240179 256.02331174 127.78198242 257.2434082 C125.92765912 259.10211352 124.08993835 260.97623979 122.25244141 262.8515625 C121.06397102 264.04590059 119.87454884 265.23929247 118.68408203 266.43164062 C118.14216721 266.98792648 117.60025238 267.54421234 117.04191589 268.11735535 C113.3705329 271.74588105 110.14952158 273.77065692 105.23486328 275.41992188 C98.05913883 275.18073106 94.48520862 271.19281719 89.73974609 266.23193359 C88.56096776 264.97098282 87.39640715 263.69676605 86.23486328 262.41992188 C85.49719727 262.78960083 85.49719727 262.78960083 84.74462891 263.16674805 C73.79274982 268.61345207 63.03685576 273.18047842 51.23486328 276.41992188 C51.17878906 278.28197266 51.17878906 278.28197266 51.12158203 280.18164062 C51.05590378 281.82359699 50.98945708 283.46552274 50.92236328 285.10742188 C50.89980469 285.92404297 50.87724609 286.74066406 50.85400391 287.58203125 C50.64430086 292.29081793 50.29802096 295.61462149 47.23486328 299.41992188 C44.01425837 301.56699182 43.10107407 301.68067371 39.38378906 301.72631836 C38.39911652 301.74230576 37.41444397 301.75829315 36.39993286 301.77476501 C34.80615311 301.78280907 34.80615311 301.78280907 33.18017578 301.79101562 C32.08647675 301.8000441 30.99277771 301.80907257 29.86593628 301.81837463 C27.55095157 301.83288984 25.23592571 301.84176701 22.92089844 301.84545898 C19.38031826 301.85735316 15.84148165 301.90652718 12.30126953 301.95703125 C10.05258013 301.96649552 7.80388001 301.97373053 5.55517578 301.97851562 C4.49670441 301.99804794 3.43823303 302.01758026 2.34768677 302.03770447 C-5.01786172 301.99253106 -5.01786172 301.99253106 -8.91015625 299.01000977 C-11.19494655 295.81978335 -11.89203947 294.13132331 -12.08154297 290.28710938 C-12.1234375 289.48144531 -12.16533203 288.67578125 -12.20849609 287.84570312 C-12.2478125 287.00394531 -12.28712891 286.1621875 -12.32763672 285.29492188 C-12.37082031 284.44542969 -12.41400391 283.5959375 -12.45849609 282.72070312 C-12.56467908 280.62063965 -12.66542168 278.5203024 -12.76513672 276.41992188 C-13.32797363 276.24452881 -13.89081055 276.06913574 -14.47070312 275.88842773 C-26.0947805 272.23206673 -37.08142502 268.32738599 -47.76513672 262.41992188 C-48.81701172 263.57621094 -48.81701172 263.57621094 -49.89013672 264.75585938 C-58.4714746 273.93540093 -58.4714746 273.93540093 -63.01513672 275.29492188 C-68.93287037 275.49217966 -72.9420738 273.40509949 -77.19018555 269.48071289 C-78.37802456 268.30561595 -79.5549368 267.11939733 -80.72216797 265.92382812 C-81.35120529 265.29387436 -81.98024261 264.66392059 -82.62834167 264.01487732 C-83.94815977 262.68904723 -85.26314438 261.35838968 -86.57348633 260.02319336 C-88.57840825 257.98163624 -90.59899925 255.95666247 -92.62255859 253.93359375 C-93.90671121 252.63961346 -95.18994684 251.34472237 -96.47216797 250.04882812 C-97.07422562 249.44454483 -97.67628326 248.84026154 -98.29658508 248.21766663 C-98.85444199 247.64705002 -99.41229889 247.07643341 -99.98706055 246.48852539 C-100.72150139 245.74264915 -100.72150139 245.74264915 -101.47077942 244.98170471 C-103.87971405 242.07506313 -104.7221277 239.80700303 -105.14013672 236.04492188 C-104.33791882 228.29014884 -98.13092924 223.55128657 -92.76513672 218.41992188 C-94.17427539 213.85068511 -96.04007379 209.63903265 -98.14013672 205.35742188 C-105.76513672 189.4543042 -105.76513672 189.4543042 -105.76513672 182.41992188 C-106.83892578 182.45472656 -107.91271484 182.48953125 -109.01904297 182.52539062 C-110.4552251 182.55355106 -111.89142434 182.58084878 -113.32763672 182.60742188 C-114.03210938 182.63255859 -114.73658203 182.65769531 -115.46240234 182.68359375 C-120.65089324 182.75532404 -124.25533237 182.07897833 -128.76513672 179.41992188 C-132.31817717 174.16115233 -132.20317491 169.28064542 -132.16357422 163.16601562 C-132.1664444 162.18754166 -132.16931458 161.20906769 -132.17227173 160.20094299 C-132.1743071 158.1392458 -132.16881422 156.07752906 -132.15625 154.01586914 C-132.14017184 150.86430663 -132.15612581 147.71402315 -132.17529297 144.5625 C-132.17331078 142.55533572 -132.16946762 140.54817223 -132.16357422 138.54101562 C-132.16964691 137.60132431 -132.1757196 136.661633 -132.18197632 135.69346619 C-132.11723185 129.6603368 -131.23936654 126.24323857 -127.18701172 121.61914062 C-123.26776964 119.67848366 -119.31745112 120.10849997 -115.01513672 120.23242188 C-113.68289062 120.25272461 -113.68289062 120.25272461 -112.32373047 120.2734375 C-110.13691094 120.30870878 -107.95133705 120.35799435 -105.76513672 120.41992188 C-105.66644287 119.81188721 -105.56774902 119.20385254 -105.46606445 118.57739258 C-104.32265741 112.1815553 -102.43482431 106.54415545 -99.82763672 100.60742188 C-99.48023438 99.78822266 -99.13283203 98.96902344 -98.77490234 98.125 C-97.33298778 94.77139457 -95.92769453 91.67267306 -93.94873047 88.59570312 C-92.5961941 86.53524063 -92.5961941 86.53524063 -92.80029297 84.38867188 C-94.13684259 81.66146131 -95.98877767 79.98855177 -98.20263672 77.91992188 C-104.48492081 72.03091078 -104.48492081 72.03091078 -104.98875427 67.33630371 C-104.483995 60.44564147 -101.64276779 57.20934759 -96.73779297 52.57617188 C-96.03367783 51.88100464 -95.32956268 51.1858374 -94.60411072 50.46960449 C-92.36342857 48.26687845 -90.09621611 46.09386676 -87.82763672 43.91992188 C-86.30568161 42.4295426 -84.7854788 40.93737166 -83.26708984 39.44335938 C-80.49290567 36.72754938 -77.71498242 34.01612346 -74.91381836 31.328125 C-74.35279922 30.78901489 -73.79178009 30.24990479 -73.21376038 29.69445801 C-70.3143613 27.14349257 -67.6433045 27.07520992 -63.84326172 27.15039062 C-57.1542174 28.01795464 -52.18985901 34.79305492 -47.76513672 39.41992188 C-47.22211914 39.16823242 -46.67910156 38.91654297 -46.11962891 38.65722656 C-19.61481591 26.41992188 -19.61481591 26.41992188 -11.76513672 26.41992188 C-11.79994141 25.17855469 -11.83474609 23.9371875 -11.87060547 22.65820312 C-11.89875256 21.01628962 -11.92605173 19.37436142 -11.95263672 17.73242188 C-11.97777344 16.91580078 -12.00291016 16.09917969 -12.02880859 15.2578125 C-12.08692481 10.47291105 -11.93856271 7.26368954 -8.76513672 3.41992188 C-5.80256837 0.79351769 -3.94537615 0.04022703 0 0 Z M-44.76513672 80.41992188 C-45.60302734 81.16628906 -46.44091797 81.91265625 -47.30419922 82.68164062 C-64.39980967 98.69223555 -75.11913478 121.86548942 -76.00341797 145.28320312 C-76.59316698 174.09363245 -67.58596743 198.17292273 -47.76513672 219.41992188 C-28.41854075 237.64539267 -3.58599512 247.10727991 22.88720703 246.63085938 C44.83013915 245.83149913 64.39189742 237.28662068 81.23486328 223.41992188 C82.71986328 222.30617188 82.71986328 222.30617188 84.23486328 221.16992188 C100.85187702 207.08458613 111.70746155 183.85650091 114.23486328 162.41992188 C116.34901112 134.8512346 109.01244387 109.80333248 91.23486328 88.41992188 C72.37011394 67.5418294 48.90580209 57.48216092 21.23486328 55.41992188 C-3.30811574 55.41992188 -26.67021389 63.66642077 -44.76513672 80.41992188 Z " fill="#3C70B7" transform="translate(236.76513671875,200.580078125)"/>
<path d="M0 0 C108.9 0 217.8 0 330 0 C330 33 330 66 330 100 C281.16 100 232.32 100 182 100 C178.04 92.74 174.08 85.48 170 78 C162.16503161 67.05408828 153.71503209 58.33023298 140 56 C138.02963544 55.90247927 136.05652355 55.85416652 134.08378601 55.84178162 C132.30650368 55.82709839 132.30650368 55.82709839 130.49331665 55.81211853 C129.20218964 55.80636307 127.91106262 55.8006076 126.58081055 55.79467773 C125.20077729 55.7850925 123.82074694 55.77508204 122.4407196 55.76467896 C118.70148409 55.73769376 114.96223604 55.71664972 111.22295737 55.69667697 C107.31249961 55.67477793 103.40208022 55.64740844 99.49165344 55.62062073 C92.08990381 55.57074675 84.68813281 55.52578832 77.28634149 55.48259836 C68.85830738 55.43318068 60.43031177 55.37827938 52.00231493 55.32291877 C34.66824414 55.20918002 17.33413787 55.10304725 0 55 C0 36.85 0 18.7 0 0 Z " fill="#1C9CD7" transform="translate(115,61)"/>
<path d="M0 0 C108.9 0 217.8 0 330 0 C330 13.2 330 26.4 330 40 C233.31 40 136.62 40 37 40 C37 61.78 37 83.56 37 106 C24.79 106 12.58 106 0 106 C0 71.02 0 36.04 0 0 Z " fill="#1A9ED9" transform="translate(67,10)"/>
<path d="M0 0 C17.75022892 13.65197517 28.05895469 32.06581186 32.64453125 53.82421875 C35.03474769 72.34281151 32.81168387 90.46056504 24.0625 107.0625 C23.4025 107.0625 22.7425 107.0625 22.0625 107.0625 C20.73046875 105.0859375 20.73046875 105.0859375 19.25 102.4375 C12.07042001 89.61819632 0.40766503 82.38451972 -12.9375 77.0625 C-12.50630859 75.99515625 -12.50630859 75.99515625 -12.06640625 74.90625 C-10.96697535 72.13674933 -9.90746793 69.35762232 -8.875 66.5625 C-8.36259766 65.18578125 -8.36259766 65.18578125 -7.83984375 63.78125 C-4.05968961 52.39169468 -5.64519032 41.09610586 -9.9375 30.0625 C-11.6826688 26.82413865 -13.67340999 23.95481278 -15.9375 21.0625 C-16.515 20.19625 -17.0925 19.33 -17.6875 18.4375 C-25.41818763 10.27732972 -36.35046841 4.55276369 -47.625 3.82421875 C-62.2579081 3.44648554 -73.46557388 6.57568156 -84.625 16.4375 C-93.87084026 26.93277813 -99.32771811 38.04939671 -99.15625 52.28125 C-98.50337866 60.5820427 -95.84019014 67.79542181 -91.9375 75.0625 C-91.9375 75.7225 -91.9375 76.3825 -91.9375 77.0625 C-92.95328125 77.51238281 -93.9690625 77.96226562 -95.015625 78.42578125 C-107.95593105 84.38318135 -118.03652909 91.96846996 -125.9375 104.0625 C-129.54072879 101.33373902 -130.34508738 97.39446335 -131.5625 93.25 C-131.7790625 92.55068359 -131.995625 91.85136719 -132.21875 91.13085938 C-138.66419709 69.86486265 -135.42370946 46.30034954 -125.22265625 26.78125 C-113.46969194 6.59210885 -95.29441657 -7.80160245 -72.83984375 -14.24609375 C-47.03758667 -20.39279564 -21.51299081 -15.01115375 0 0 Z " fill="#3C70B7" transform="translate(306.9375,283.9375)"/>
<path d="M0 0 C0.57621094 0.37769531 1.15242188 0.75539063 1.74609375 1.14453125 C4.43087049 2.85392121 7.21823547 4.26018378 10.0625 5.6875 C11.56876953 6.45126953 11.56876953 6.45126953 13.10546875 7.23046875 C22.10065105 11.35378927 35.56338834 11.11094887 44.8125 7.9375 C47.74740138 6.70556609 50.15237327 5.30911947 52.78125 3.5 C60.43759406 -1.70947122 60.43759406 -1.70947122 64.984375 -1.046875 C68.15988978 0.22655479 70.95890112 1.71388944 73.875 3.5 C74.679375 3.95503906 75.48375 4.41007812 76.3125 4.87890625 C85.94745032 10.7502041 93.56778168 18.53133621 96.875 29.5 C97.34765625 31.9375 97.34765625 31.9375 96.875 34.5 C95.06360308 36.82292097 93.35671062 38.72994457 91.25 40.75 C90.66460449 41.31920166 90.07920898 41.88840332 89.47607422 42.47485352 C72.60495729 58.39671766 50.64039439 66.41837854 27.46484375 65.78125 C5.04402468 64.02466788 -12.74885969 56.12545136 -29.125 40.5 C-29.83269531 39.87867188 -30.54039062 39.25734375 -31.26953125 38.6171875 C-34.25439586 35.90588482 -35.93514658 33.97915386 -37.4375 30.1875 C-36.76775998 22.28456776 -31.20459921 15.7749282 -25.6015625 10.453125 C-19.48449537 5.62893956 -7.5134956 -3.60647789 0 0 Z " fill="#4068B1" transform="translate(225.125,370.5)"/>
<path d="M0 0 C8.99546836 6.43602562 13.71436941 14.64270561 15.53515625 25.4921875 C16.71164444 35.61579576 14.33173653 45.07297391 8.34765625 53.3671875 C1.95840467 60.90322783 -6.46054526 65.94523723 -16.32421875 66.84375 C-27.64039723 67.37797919 -36.87696918 65.49393158 -45.90234375 58.1796875 C-53.73348632 50.62474706 -57.44728941 41.30173607 -57.83984375 30.4296875 C-57.47725989 20.48227804 -53.6140997 12.33298611 -47.21484375 4.8671875 C-33.46655377 -7.00633566 -15.96712385 -9.76752743 0 0 Z " fill="#3D6EB6" transform="translate(275.46484375,303.5078125)"/>
</svg>
