<?xml version="1.0" encoding="UTF-8"?>
<svg version="1.1" xmlns="http://www.w3.org/2000/svg" width="512" height="512">
<path d="M0 0 C7.08169797 4.97441159 12.28610344 10.69721143 15 19 C15.25801991 20.91299613 15.48718559 22.83010349 15.6875 24.75 C16.18437957 28.03492607 16.42935838 29.50011794 18.953125 31.7109375 C20.66233948 32.68379228 22.39785226 33.61139424 24.15234375 34.5 C40.86141002 43.30148347 50.98116838 59.57391653 57.3828125 76.69921875 C61.02864265 88.89872733 60.39243572 101.38168234 60 114 C61.1446875 114.2784375 61.1446875 114.2784375 62.3125 114.5625 C65.42946383 116.22971321 66.27723395 117.78262111 67.48126221 121.06469727 C68.30555081 124.13994649 68.38961145 127.04305459 68.3984375 130.21875 C68.40130768 130.88032104 68.40417786 131.54189209 68.40713501 132.22351074 C68.40916172 133.61174382 68.40373013 135.00000637 68.39111328 136.38818359 C68.3750372 138.49512488 68.39100723 140.60014856 68.41015625 142.70703125 C68.40817357 144.06510834 68.40432937 145.42318425 68.3984375 146.78125 C68.39505371 147.99876953 68.39166992 149.21628906 68.38818359 150.47070312 C67.84478941 155.41114736 66.64840984 159.57676699 62.76953125 162.92578125 C59.25773126 164.28790395 56.44389285 164.29281943 52.6875 164.1875 C51.43324219 164.16042969 50.17898438 164.13335937 48.88671875 164.10546875 C47.93410156 164.07066406 46.98148437 164.03585938 46 164 C45.86464844 164.71542969 45.72929687 165.43085938 45.58984375 166.16796875 C42.48600933 180.5348191 34.83616474 193.87309467 22.7734375 202.61328125 C22.14695312 203.00902344 21.52046875 203.40476563 20.875 203.8125 C17.62302664 205.81154057 17.62302664 205.81154057 17.0625 209.8125 C17.041875 210.864375 17.02125 211.91625 17 213 C17.680625 212.96519531 18.36125 212.93039063 19.0625 212.89453125 C40.4194161 212.29812801 58.98079221 219.36242243 74.87109375 233.56640625 C90.04443723 248.03975831 99.00225657 267.48590593 99.53344727 288.5300293 C99.58055836 291.54528222 99.57849011 294.5586941 99.56640625 297.57421875 C99.57165874 299.19847464 99.57794106 300.8227275 99.58518982 302.44697571 C99.59548814 305.81432699 99.59117638 309.18125269 99.57641602 312.54858398 C99.55907008 316.85725336 99.58297002 321.16460864 99.61790562 325.47313213 C99.63985604 328.81123124 99.63844689 332.14901295 99.6301403 335.48716164 C99.6293228 337.0767545 99.63614772 338.6663711 99.65091133 340.25589561 C99.6683556 342.46920122 99.65383074 344.68010146 99.63110352 346.89331055 C99.63014175 348.14855026 99.62917999 349.40378998 99.62818909 350.69706726 C98.80603781 355.01982678 97.43154436 356.28695815 94 359 C91.17981649 359.49445624 88.96188681 359.68046211 86.14762878 359.63923645 C84.97128285 359.65176996 84.97128285 359.65176996 83.77117234 359.66455668 C81.14671794 359.68648169 78.52366353 359.67288177 75.89916992 359.65942383 C74.01667214 359.66787669 72.1341831 359.67852064 70.25170898 359.69119263 C65.14254219 359.71937004 60.03379479 359.71686181 54.92457366 359.70889878 C49.58468778 359.70577665 44.24493615 359.73079949 38.90510559 359.75285339 C28.79398947 359.79032817 18.68300785 359.80244342 8.57182914 359.8054778 C-2.93962002 359.81016489 -14.45093413 359.84307704 -25.96232378 359.87837565 C-49.64153282 359.9503526 -73.32069041 359.98683372 -97 360 C-95.95658447 360.42297363 -94.91316895 360.84594727 -93.83813477 361.28173828 C-89.92578231 362.87080839 -86.01893555 364.47305394 -82.11352539 366.07910156 C-80.43040302 366.76916724 -78.74585554 367.45576849 -77.05981445 368.13867188 C-51.04337724 378.68400109 -51.04337724 378.68400109 -44.625 391.8125 C-44 394 -44 394 -44 397 C-43.12542145 396.84966309 -42.2508429 396.69932617 -41.34976196 396.54443359 C-33.02850817 395.11678833 -24.70493052 393.7037183 -16.37856483 392.30618286 C-12.09996655 391.58753716 -7.82240215 390.86366823 -3.546875 390.12695312 C0.59425659 389.41360866 4.73767229 388.71517191 8.88292313 388.02618408 C10.44867809 387.76341387 12.0136058 387.49565427 13.57755661 387.22235107 C21.9913822 385.75565074 30.20365625 384.76702357 38.75634766 384.734375 C39.87082559 384.7287706 39.87082559 384.7287706 41.00781822 384.72305298 C47.0570017 384.79685861 51.82039695 385.9095677 57 389 C57.71414063 389.42410156 58.42828125 389.84820312 59.1640625 390.28515625 C67.25852607 395.72693981 72.48297756 404.51817684 74.6875 413.9375 C75.77383166 424.58355028 74.20896386 434.06009991 67.78515625 442.8671875 C58.76839415 453.63994922 48.43547758 456.96875691 34.84741211 459.05883789 C33.79207275 459.23016739 32.7367334 459.40149689 31.64941406 459.57801819 C28.19361443 460.13647669 24.73559981 460.67963618 21.27734375 461.22265625 C18.84738471 461.61235435 16.4175826 462.0030321 13.9879303 462.39463806 C7.60628418 463.42061226 1.2226574 464.433689 -5.16149902 465.44390869 C-11.60821473 466.46618024 -18.05307496 467.50000472 -24.49804688 468.53320312 C-31.77114595 469.69862729 -39.04440278 470.86295813 -46.31910706 472.01832581 C-47.42680671 472.19434546 -48.53450636 472.37036512 -49.67577267 472.55171871 C-51.82206176 472.89269173 -53.96840532 473.23332211 -56.11480808 473.57357883 C-60.85779428 474.32811681 -65.59768092 475.09509569 -70.33151245 475.90524292 C-71.15006179 476.04493468 -71.96861113 476.18462645 -72.81196499 476.32855129 C-74.29313799 476.58303839 -75.77373607 476.84091176 -77.25353336 477.10328007 C-103.88028143 481.68572226 -129.28603688 471.30628578 -151.89404297 458.19580078 C-155.16818564 456.3366829 -158.50818477 454.62157803 -161.875 452.9375 C-162.96554688 452.38964844 -164.05609375 451.84179688 -165.1796875 451.27734375 C-174.85899908 446.89350042 -185.19301865 448.89422274 -195 452 C-197.37068551 452.93149059 -199.67358967 453.96054006 -202 455 C-202.99 455 -203.98 455 -205 455 C-204.25943359 456.19496094 -204.25943359 456.19496094 -203.50390625 457.4140625 C-202.86324219 458.47367187 -202.22257813 459.53328125 -201.5625 460.625 C-200.60537109 462.19121094 -200.60537109 462.19121094 -199.62890625 463.7890625 C-198.00089414 466.99823745 -197.28820859 469.43025851 -197 473 C-200.0619321 481.74837744 -213.44059776 486.59061745 -221 490.75 C-230.15238462 495.78970246 -230.15238462 495.78970246 -239.12890625 501.1328125 C-239.88751953 501.59977539 -240.64613281 502.06673828 -241.42773438 502.54785156 C-242.80172685 503.40203993 -244.16718873 504.2701879 -245.52148438 505.15527344 C-250.3544064 508.14599333 -253.48244003 508.81783122 -259 508 C-262.67629719 504.8257757 -265.10226138 501.51972894 -267.4609375 497.30078125 C-268.4036853 495.63088135 -268.4036853 495.63088135 -269.36547852 493.92724609 C-270.03534299 492.72234406 -270.70518283 491.51742833 -271.375 490.3125 C-272.082311 489.05497159 -272.79057916 487.79798111 -273.49975586 486.54150391 C-274.95786112 483.95744507 -276.41274337 481.37161204 -277.86572266 478.78466797 C-281.05234753 473.12185585 -284.30767935 467.49880297 -287.5625 461.875 C-288.80349382 459.72662511 -290.04437916 457.57818756 -291.28515625 455.4296875 C-291.89762207 454.36975586 -292.51008789 453.30982422 -293.14111328 452.21777344 C-296.26324606 446.81329353 -299.38138904 441.40651263 -302.5 436 C-303.739574 433.85155711 -304.97915735 431.70311962 -306.21875 429.5546875 C-308.48542819 425.6258575 -310.75157239 421.69672062 -313.01696777 417.76715088 C-314.02619104 416.01658759 -315.03553836 414.26609589 -316.04492188 412.515625 C-317.3016766 410.33607835 -318.55820586 408.15640168 -319.81445312 405.9765625 C-320.67973633 404.47609375 -320.67973633 404.47609375 -321.5625 402.9453125 C-322.40312988 401.48411987 -322.40312988 401.48411987 -323.26074219 399.9934082 C-324.4814739 397.8924268 -325.71791529 395.80053224 -326.96582031 393.71557617 C-327.91859863 392.11806519 -327.91859863 392.11806519 -328.890625 390.48828125 C-329.46844727 389.52962158 -330.04626953 388.57096191 -330.64160156 387.58325195 C-332.58677483 383.88413651 -332.99601757 382.06707175 -332 378 C-327.5848034 372.46197323 -321.38669866 369.63414903 -315.25 366.3125 C-312.99659126 365.07307626 -310.74398974 363.8321838 -308.4921875 362.58984375 C-307.38842773 361.98253418 -306.28466797 361.37522461 -305.14746094 360.74951172 C-299.54315112 357.63436402 -294.03444039 354.36214662 -288.5234375 351.0859375 C-287.93900879 350.74062988 -287.35458008 350.39532227 -286.75244141 350.03955078 C-285.54190854 349.32146093 -284.33611414 348.59534411 -283.13427734 347.86279297 C-278.15000048 344.88653197 -275.68294956 344.08339523 -270 345 C-266.57129445 348.27631863 -264.40580495 351.95356016 -262 356 C-261.08001221 355.69296143 -260.16002441 355.38592285 -259.2121582 355.06958008 C-216.18129857 340.74749876 -216.18129857 340.74749876 -195 338 C-194.17628906 337.88914062 -193.35257813 337.77828125 -192.50390625 337.6640625 C-180.09815491 336.26676326 -167.47063339 336.35572919 -155.125 338.1875 C-154.40183594 338.28836914 -153.67867187 338.38923828 -152.93359375 338.49316406 C-148.10718498 339.29684344 -143.75912861 340.78756781 -139.20263672 342.5715332 C-138.03900604 343.0252681 -136.87537537 343.47900299 -135.67648315 343.94648743 C-134.79324371 344.29414658 -133.91000427 344.64180573 -133 345 C-133.00888245 344.22342545 -133.01776489 343.44685089 -133.0269165 342.64674377 C-133.10779262 335.24985364 -133.16832916 327.8531844 -133.20724869 320.45596409 C-133.22793173 316.6549364 -133.25588521 312.85428056 -133.30175781 309.0534668 C-133.63351213 280.80117596 -131.76299595 258.12938025 -111.5625 236.375 C-110.716875 235.59125 -109.87125 234.8075 -109 234 C-108.42507813 233.40832031 -107.85015625 232.81664062 -107.2578125 232.20703125 C-92.97964454 218.2790825 -72.80049939 212.7962828 -53.34375 212.96484375 C-52.18359375 212.98224609 -52.18359375 212.98224609 -51 213 C-51 210.26118351 -51.05650031 208.52283614 -52 206 C-53.7731955 204.28108599 -55.64981505 203.02740921 -57.71875 201.6796875 C-60.27256615 199.79930917 -61.97723262 197.68510073 -64 195.25 C-69.04523772 189.99417844 -74.40232768 189.884722 -81.24609375 189.3671875 C-87.74498102 188.7315003 -91.8464131 186.48404853 -96.3125 181.8125 C-101.79539345 174.62797807 -102.45383776 166.83420266 -102.3984375 158.05078125 C-102.40274277 156.52640694 -102.40274277 156.52640694 -102.40713501 154.97123718 C-102.40916456 152.83750852 -102.40371287 150.70376078 -102.39111328 148.57006836 C-102.37499388 145.31126356 -102.39102598 142.05368945 -102.41015625 138.79492188 C-102.4081746 136.71353894 -102.40433255 134.63215678 -102.3984375 132.55078125 C-102.40451019 131.58191483 -102.41058289 130.6130484 -102.4168396 129.61482239 C-102.36222457 124.3506957 -102.03842503 120.50588171 -99 116 C-98.01 115.34 -97.02 114.68 -96 114 C-95.54011476 111.8129246 -95.54011476 111.8129246 -95.59375 109.265625 C-95.5642627 107.8257019 -95.5642627 107.8257019 -95.53417969 106.35668945 C-95.52290039 105.33148193 -95.51162109 104.30627441 -95.5 103.25 C-94.85417964 80.26127925 -87.8203427 61.04514343 -72 44 C-57.93877551 31 -57.93877551 31 -51 31 C-50.99613281 30.01773438 -50.99613281 30.01773438 -50.9921875 29.015625 C-50.58059654 19.30207828 -47.38321873 10.69989421 -40.125 4 C-28.4147091 -5.19773806 -13.3808878 -7.3545324 0 0 Z M-31 19 C-31.66 20.65 -32.32 22.3 -33 24 C-22.77 24 -12.54 24 -2 24 C-4.80569424 18.38861152 -6.52707905 15.73646048 -12 13 C-19.81405072 11.96075756 -25.67410429 12.8465215 -31 19 Z M-64.7421875 61.9296875 C-77.20027641 77.48616122 -78.52327325 93.9045515 -78 113 C-52.79099802 113.68440729 -27.43559458 102.09877793 -9.23828125 85.15234375 C-7.76749914 83.73803146 -6.30619795 82.31378048 -4.85546875 80.87890625 C-1.71975793 77.89908163 0.24438147 76.18890463 4.5 75.125 C10.2388996 76.5597249 13.67634619 80.47846813 17.60546875 84.7421875 C24.51435791 92.14578724 33.16677209 97.55410871 43 100 C43.7159509 85.44233169 38.11525154 71.41150559 28.5 60.5 C27.0199641 58.98029814 25.5217751 57.47790411 24 56 C23.18982422 55.15888672 23.18982422 55.15888672 22.36328125 54.30078125 C11.16176587 43.55071233 -4.74043331 39.47379079 -19.80371094 39.58007812 C-37.93065014 40.13915336 -52.73651494 48.63192462 -64.7421875 61.9296875 Z M4 96 C3.28457031 96.6290625 2.56914062 97.258125 1.83203125 97.90625 C-15.06989019 112.42484746 -33.15707076 120.7243299 -54.515625 126.33325195 C-57.68801312 127.1846466 -60.8433454 128.0922212 -64 129 C-64.10007178 133.35581651 -64.17202448 137.71099593 -64.21972656 142.06762695 C-64.23964487 143.54463378 -64.26679007 145.02156384 -64.30175781 146.49829102 C-64.51178054 155.60648249 -64.19307066 163.65952788 -60 172 C-58.4634684 173.5365316 -57.05117997 173.13214105 -54.91088867 173.1418457 C-54.04296188 173.14888016 -53.1750351 173.15591461 -52.2808075 173.16316223 C-51.33607071 173.16732651 -50.39133392 173.17149078 -49.41796875 173.17578125 C-47.4342342 173.19898155 -45.45051021 173.22309897 -43.46679688 173.24804688 C-40.32634453 173.28317278 -37.1862792 173.31250522 -34.0456543 173.32592773 C-31.02344379 173.34138722 -28.00237771 173.38158931 -24.98046875 173.42578125 C-24.04180466 173.42387283 -23.10314056 173.42196442 -22.1360321 173.41999817 C-15.64529589 173.54199539 -15.64529589 173.54199539 -12.39575195 175.84838867 C-10.12515273 179.34861448 -10.66884394 182.42700872 -11.5 186.375 C-11.665 186.91125 -11.83 187.4475 -12 188 C-15.51424524 189.05955248 -18.85655874 189.19998141 -22.515625 189.31640625 C-23.76601563 189.35830078 -25.01640625 189.40019531 -26.3046875 189.44335938 C-27.60664063 189.48267578 -28.90859375 189.52199219 -30.25 189.5625 C-32.22613281 189.62727539 -32.22613281 189.62727539 -34.2421875 189.69335938 C-37.49468788 189.79941917 -40.74726392 189.90148024 -44 190 C-41.24532352 192.1151464 -38.68998161 193.73757649 -35.5 195.125 C-34.7471875 195.45757812 -33.994375 195.79015625 -33.21875 196.1328125 C-22.85483887 200.18349608 -8.72485073 199.3088069 1.43359375 195.25390625 C13.92978268 189.14846234 22.96373383 180.06126735 28 167 C29.93606948 160.59286039 30.26666853 154.82626398 30.1953125 148.15625 C30.19106766 146.64170227 30.19106766 146.64170227 30.18673706 145.09655762 C30.1756153 141.89758033 30.15052563 138.6988915 30.125 135.5 C30.11495985 133.32031657 30.10583582 131.14062871 30.09765625 128.9609375 C30.07570225 123.64052795 30.04230518 118.32028459 30 113 C29.12682129 112.54471924 28.25364258 112.08943848 27.35400391 111.62036133 C26.19819824 111.0095874 25.04239258 110.39881348 23.8515625 109.76953125 C22.71025879 109.16987549 21.56895508 108.57021973 20.39306641 107.95239258 C16.25115169 105.56910779 12.66421641 102.77755175 9.0234375 99.69921875 C6.90623445 97.85783104 6.90623445 97.85783104 4 96 Z M-85 130 C-85 135.61 -85 141.22 -85 147 C-83.68 147 -82.36 147 -81 147 C-81 141.39 -81 135.78 -81 130 C-82.32 130 -83.64 130 -85 130 Z M47 130 C47 135.61 47 141.22 47 147 C48.32 147 49.64 147 51 147 C51 141.39 51 135.78 51 130 C49.68 130 48.36 130 47 130 Z M-85 164 C-84.5047783 167.66464055 -83.9791794 169.70832354 -81 172 C-80.01 172.33 -79.02 172.66 -78 173 C-78.66 170.03 -79.32 167.06 -80 164 C-81.65 164 -83.3 164 -85 164 Z M-34 214 C-34.73807331 220.68408825 -34.73807331 220.68408825 -31.76953125 223.73046875 C-30.30580078 224.94669922 -30.30580078 224.94669922 -28.8125 226.1875 C-27.84957031 227.00605469 -26.88664062 227.82460937 -25.89453125 228.66796875 C-23.26755577 230.78443887 -20.64036797 232.90025582 -18 235 C-14.35015184 233.44182816 -11.8314046 231.18875601 -8.9375 228.5 C-6.34079665 226.09463269 -3.94893694 223.96595796 -1 222 C-1 219.36 -1 216.72 -1 214 C-11.89 214 -22.78 214 -34 214 Z M-56 230 C-52.02188379 239.67587919 -48.03564085 249.34793732 -44 259 C-40.28954753 257.42219077 -37.70093616 255.09296752 -34.75 252.375 C-33.85796875 251.55773437 -32.9659375 250.74046875 -32.046875 249.8984375 C-31.37140625 249.27195313 -30.6959375 248.64546875 -30 248 C-35.50124828 241.1958245 -41.69350182 234.87099878 -49 230 C-51.33199388 229.92094936 -53.66832622 229.91201231 -56 230 Z M8.0234375 235.765625 C5.45088903 238.60635419 2.59580023 240.99834283 -0.3359375 243.45703125 C-2.23084911 245.09388333 -2.23084911 245.09388333 -4 248 C-0.04 251.63 3.92 255.26 8 259 C10.98573569 256.01426431 12.047302 254.07837733 13.69921875 250.2734375 C14.18583984 249.1596875 14.67246094 248.0459375 15.17382812 246.8984375 C15.67333984 245.73570312 16.17285156 244.57296875 16.6875 243.375 C17.19861328 242.20453125 17.70972656 241.0340625 18.23632812 239.828125 C20.73751238 235.07333058 20.73751238 235.07333058 22 230 C14.99045259 228.99863608 12.67012843 230.58630942 8.0234375 235.765625 Z M-99.1875 247.625 C-109.22515769 258.28099389 -116.14406018 272.41893137 -116.11352539 287.16723633 C-116.11344986 288.38812454 -116.11337433 289.60901276 -116.11329651 290.86689758 C-116.10813522 292.17539169 -116.10297394 293.4838858 -116.09765625 294.83203125 C-116.09578961 296.19251961 -116.09436687 297.55300865 -116.09336853 298.91349792 C-116.08956275 302.48255287 -116.07974914 306.05156669 -116.06866455 309.62060547 C-116.05840863 313.26724684 -116.05380707 316.91389511 -116.04882812 320.56054688 C-116.03865659 327.70706749 -116.01908001 334.85347538 -116 342 C-106.76 342 -97.52 342 -88 342 C-87.96261719 339.17050781 -87.92523438 336.34101563 -87.88671875 333.42578125 C-87.84047811 330.67871467 -87.78925369 327.93178298 -87.73754883 325.18481445 C-87.70434038 323.27897369 -87.67629575 321.37303554 -87.65356445 319.46704102 C-87.61994332 316.72369985 -87.56762405 313.98124778 -87.51171875 311.23828125 C-87.50213387 309.96456413 -87.50213387 309.96456413 -87.49235535 308.66511536 C-87.37735513 304.01464225 -87.10345048 300.72423254 -84 297 C-80.0397658 295.79471133 -76.97445961 295.94793716 -73 297 C-68.25190097 311.2442971 -71.35739413 326.98944658 -71 342 C-32.06 342 6.88 342 47 342 C47.33 328.47 47.66 314.94 48 301 C51 297 51 297 53.375 296.125 C56.50049241 295.97616703 58.25626746 296.51690133 61 298 C63.0225534 301.0338301 63.25577087 301.68758864 63.31884766 305.10424805 C63.34865219 306.3351844 63.34865219 306.3351844 63.37905884 307.59098816 C63.39061005 308.47232925 63.40216125 309.35367035 63.4140625 310.26171875 C63.44311172 311.62040825 63.44311172 311.62040825 63.4727478 313.00654602 C63.53253542 315.90010151 63.57892568 318.7936968 63.625 321.6875 C63.66318054 323.64910591 63.70223231 325.61069506 63.7421875 327.57226562 C63.8398767 332.38142334 63.91945143 337.19040226 64 342 C69.94 342 75.88 342 82 342 C82.06818501 334.38425886 82.12304966 326.76863399 82.15543652 319.15266037 C82.17099244 315.61500317 82.19204237 312.07756834 82.22631836 308.54003906 C82.26560662 304.45896454 82.27979226 300.37811805 82.29296875 296.296875 C82.30845261 295.04638367 82.32393646 293.79589233 82.33988953 292.50750732 C82.34340959 273.86056704 75.70830707 259.75006545 63.2734375 246.10546875 C57.97840728 240.93873222 46.62914924 233 39 233 C38.76640778 233.52982483 38.53281555 234.05964966 38.29214478 234.60552979 C35.86000522 240.12149256 33.42649436 245.63684884 30.9921875 251.15185547 C30.08395798 253.20996844 29.17607784 255.26823562 28.26855469 257.32666016 C26.96381045 260.28588861 25.65780947 263.24455962 24.3515625 266.203125 C23.94628326 267.12305237 23.54100403 268.04297974 23.1234436 268.99078369 C22.74320038 269.8513739 22.36295715 270.71196411 21.97119141 271.59863281 C21.63809967 272.35364075 21.30500793 273.10864868 20.96182251 273.88653564 C20.64442108 274.58397888 20.32701965 275.28142212 20 276 C19.67059418 276.7301532 19.34118835 277.4603064 19.00180054 278.21258545 C18 280 18 280 16 281 C9.26396311 281.72726604 9.26396311 281.72726604 6.29003906 280.01611328 C4.63147575 278.61084087 3.12810459 277.1328022 1.625 275.5625 C0.50424529 274.46449758 -0.61685238 273.36684512 -1.73828125 272.26953125 C-2.28564941 271.71990723 -2.83301758 271.1702832 -3.39697266 270.60400391 C-5.73665792 268.26289331 -8.1339651 265.99917486 -10.5625 263.75 C-11.32691406 263.02296875 -12.09132813 262.2959375 -12.87890625 261.546875 C-15.10110294 259.60717809 -15.10110294 259.60717809 -19 260 C-20.9947893 261.38404421 -20.9947893 261.38404421 -22.86328125 263.32421875 C-23.58580078 264.02353516 -24.30832031 264.72285156 -25.05273438 265.44335938 C-25.79845703 266.18392578 -26.54417969 266.92449219 -27.3125 267.6875 C-40.47012507 280.61408687 -40.47012507 280.61408687 -46.6875 281.5625 C-50.70304814 280.88061447 -51.44460787 280.10656121 -54 277 C-55.28968664 274.42864273 -56.44008159 271.92130822 -57.53125 269.26953125 C-57.84904419 268.51967453 -58.16683838 267.76981781 -58.4942627 266.99723816 C-59.5053675 264.6060771 -60.50297331 262.20956054 -61.5 259.8125 C-62.16965903 258.22031844 -62.84022341 256.62851735 -63.51171875 255.03710938 C-64.48185702 252.73698632 -65.451139 250.43654116 -66.41625977 248.13430786 C-68.54443151 243.05853279 -70.73238761 238.015357 -73 233 C-81.97057449 233 -92.95627169 241.8336231 -99.1875 247.625 Z M-252 371 C-252 375.31099288 -251.36726232 376.61222054 -249.2890625 380.26171875 C-248.70890381 381.28934326 -248.12874512 382.31696777 -247.53100586 383.37573242 C-246.90202393 384.46861572 -246.27304199 385.56149902 -245.625 386.6875 C-244.98377197 387.81583252 -244.34254395 388.94416504 -243.68188477 390.10668945 C-239.38075767 397.65478276 -235.03578989 405.17758568 -230.58203125 412.63671875 C-228.55778966 416.03245444 -226.59247692 419.4589179 -224.63671875 422.89453125 C-224.0547876 423.90620361 -223.47285645 424.91787598 -222.87329102 425.96020508 C-221.72713029 427.95306183 -220.59052914 429.95145401 -219.46459961 431.95581055 C-218.94260986 432.85726807 -218.42062012 433.75872559 -217.8828125 434.6875 C-217.42277832 435.49574219 -216.96274414 436.30398438 -216.48876953 437.13671875 C-215.14175191 439.13172709 -215.14175191 439.13172709 -212.99121094 439.82519531 C-209.97218144 440.09023027 -207.88492448 438.94757322 -205.125 437.75 C-189.83286308 431.61605905 -173.68749787 429.19802325 -157.93066406 435.16894531 C-151.77058713 437.82055152 -146.0233452 441.37214958 -140.22851562 444.72607422 C-118.54904072 457.1190957 -97.50163866 463.33156072 -72.51123047 459.21166992 C-71.31463806 459.02141739 -70.11804565 458.83116486 -68.88519287 458.63514709 C-65.63632574 458.11661303 -62.38881893 457.59044058 -59.14184332 457.06021285 C-55.72499111 456.5037297 -52.30674066 455.95595613 -48.88870239 455.40681458 C-43.1534752 454.48396469 -37.41943091 453.55402904 -31.68603516 452.61987305 C-25.07842361 451.54337559 -18.46901861 450.47849458 -11.85854423 449.41973037 C-5.46994505 448.3961968 0.91724359 447.3641014 7.30385971 446.32827187 C10.00890965 445.88971606 12.71441698 445.45416293 15.42035294 445.02110863 C19.20481207 444.41359162 22.98755956 443.79633968 26.77001953 443.17651367 C28.43479843 442.91217026 28.43479843 442.91217026 30.13320923 442.64248657 C39.17670889 441.14304644 47.42099575 439.73564721 54 433 C57.15944385 428.09741472 58.77962469 422.70321729 57.5625 416.921875 C55.58218895 411.02594893 52.505953 406.87946475 47.5 403.125 C36.78881453 399.68211896 24.49141265 402.76427658 13.6484375 404.58984375 C12.01524209 404.85732212 10.38190782 405.12395386 8.7484436 405.38978577 C5.35386009 405.94431388 1.96045571 406.50539439 -1.43212891 407.07202148 C-5.78063685 407.79827623 -10.13090184 408.51324126 -14.48195839 409.22405148 C-18.64741671 409.90490353 -22.81204972 410.59073537 -26.9765625 411.27734375 C-27.76826466 411.40755354 -28.55996681 411.53776333 -29.37565994 411.67191887 C-31.60848805 412.04019095 -33.84070625 412.41194262 -36.07275391 412.78491211 C-37.34148346 412.99587021 -38.61021301 413.20682831 -39.91738892 413.42417908 C-44.25602538 414.06178033 -44.25602538 414.06178033 -47.32421875 416.85546875 C-47.77410156 417.62503906 -48.22398437 418.39460938 -48.6875 419.1875 C-53.05930548 426.00013981 -58.23832997 429.77035882 -66 432 C-76.10635398 433.04297631 -84.26102117 431.55078062 -93.5625 427.5 C-94.72217285 427.02022705 -95.8818457 426.5404541 -97.07666016 426.04614258 C-99.64319272 424.98357877 -102.20159696 423.90390107 -104.75537109 422.81103516 C-109.41471858 420.81770424 -114.09206283 418.86830767 -118.76953125 416.91796875 C-127.48883343 413.27537986 -136.19345559 409.59934501 -144.88708496 405.89593506 C-146.97934835 405.00875688 -149.07549076 404.13139765 -151.17285156 403.25634766 C-152.45117332 402.71907897 -153.72949372 402.18180702 -155.0078125 401.64453125 C-156.12043457 401.18022705 -157.23305664 400.71592285 -158.37939453 400.23754883 C-161 399 -161 399 -163 397 C-163.97025279 394.00838725 -164.1010566 392.36211949 -163.25 389.3125 C-162 387 -162 387 -159 385 C-153.55602961 384.33271964 -149.52610644 386.11599635 -144.640625 388.2265625 C-143.83059021 388.56638657 -143.02055542 388.90621063 -142.18597412 389.2563324 C-140.44330292 389.9889048 -138.70265572 390.72630711 -136.96386719 391.4680481 C-134.22769343 392.63450954 -131.48591411 393.78673014 -128.7421875 394.93530273 C-120.62883487 398.33586153 -112.53050764 401.77118293 -104.44036865 405.2265625 C-101.35632729 406.54023907 -98.26729222 407.8418634 -95.17712402 409.14105225 C-93.04648966 410.04282368 -90.92429408 410.9626668 -88.80175781 411.88330078 C-82.00858958 414.77376914 -76.44593171 416.88605033 -69 416 C-64.78777564 414.2601682 -62.87663464 412.1285962 -61 408 C-59.99200926 404.04003638 -59.7411978 401.76118296 -61.0625 397.875 C-64.97618056 392.06760304 -69.92477505 389.2475284 -76.34375 386.79296875 C-77.05388245 386.51030655 -77.76401489 386.22764435 -78.4956665 385.93641663 C-80.02771778 385.32775429 -81.56174833 384.72405467 -83.09753418 384.12487793 C-87.23530494 382.51043041 -91.3588793 380.86034692 -95.484375 379.21484375 C-96.76976166 378.70384628 -96.76976166 378.70384628 -98.08111572 378.18252563 C-108.51895381 374.02047685 -118.85598693 369.61909008 -129.19067383 365.20834351 C-171.33838275 347.22427688 -210.05500607 355.2646488 -252 371 Z M-278 365 C-281.41538084 366.89961329 -284.82920416 368.80199441 -288.24169922 370.70678711 C-289.96372892 371.66726938 -291.68693044 372.62564974 -293.41015625 373.58398438 C-299.37378915 376.91455129 -305.24888695 380.31393122 -311 384 C-310.41933397 387.80560234 -309.33578266 390.526577 -307.3671875 393.82421875 C-306.81619385 394.75669434 -306.2652002 395.68916992 -305.69750977 396.64990234 C-305.09608154 397.65230957 -304.49465332 398.6547168 -303.875 399.6875 C-302.58913841 401.86025981 -301.30400648 404.03345157 -300.01953125 406.20703125 C-299.3538916 407.32932129 -298.68825195 408.45161133 -298.00244141 409.60791016 C-294.81524798 415.00694277 -291.68884699 420.44058117 -288.5625 425.875 C-287.30603431 428.05471328 -286.04952362 430.23440063 -284.79296875 432.4140625 C-282.25219435 436.82453753 -279.71359433 441.236258 -277.17578125 445.6484375 C-273.46050895 452.10475726 -269.73510433 458.55513356 -266 465 C-265.06534912 466.61382568 -265.06534912 466.61382568 -264.11181641 468.26025391 C-262.30999584 471.36471984 -260.50023973 474.46440003 -258.6875 477.5625 C-258.14206543 478.50319336 -257.59663086 479.44388672 -257.03466797 480.41308594 C-256.28080811 481.69554199 -256.28080811 481.69554199 -255.51171875 483.00390625 C-255.07303467 483.75486572 -254.63435059 484.5058252 -254.18237305 485.27954102 C-253.10011869 487.15154023 -253.10011869 487.15154023 -251 488 C-248.12166534 486.65849398 -248.12166534 486.65849398 -244.85546875 484.703125 C-244.24866776 484.35368835 -243.64186676 484.00425171 -243.01667786 483.64422607 C-241.06917906 482.5202958 -239.12839432 481.38528991 -237.1875 480.25 C-235.89039399 479.49927381 -234.59287258 478.74926484 -233.29492188 478 C-228.17358054 475.0382545 -223.0665648 472.05472745 -218 469 C-219.65412401 464.46875604 -221.89701726 460.38135943 -224.25 456.1875 C-224.68546143 455.40761719 -225.12092285 454.62773437 -225.56958008 453.82421875 C-230.37245415 445.26646158 -235.33793988 436.80382282 -240.296875 428.3359375 C-244.03634773 421.94717695 -247.74084977 415.5386109 -251.4375 409.125 C-252.05173828 408.06063721 -252.66597656 406.99627441 -253.29882812 405.8996582 C-256.24164498 400.79767607 -259.17833051 395.69234283 -262.09886169 390.57757568 C-263.46395767 388.18789292 -264.83218617 385.80001109 -266.20071411 383.41229248 C-267.16286142 381.73056552 -268.12043256 380.04622306 -269.07788086 378.36181641 C-269.66448486 377.33878418 -270.25108887 376.31575195 -270.85546875 375.26171875 C-271.62346802 373.91533325 -271.62346802 373.91533325 -272.40698242 372.54174805 C-274.09234808 369.85265351 -275.97363079 367.43948848 -278 365 Z " fill="#FE6859" transform="translate(387,4)"/>
<path d="M0 0 C9.92055823 4.72407535 20.34955275 8.47871418 30.66015625 12.2578125 C38.00403069 14.9740136 45.24357052 17.93849336 52.47265625 20.9453125 C54.12612061 21.62170776 54.12612061 21.62170776 55.81298828 22.31176758 C67.01954259 27.02069675 75.92348752 32.035081 81.41015625 43.2578125 C82.03515625 45.4453125 82.03515625 45.4453125 82.03515625 48.4453125 C82.9097348 48.29497559 83.78431335 48.14463867 84.68539429 47.98974609 C93.00664808 46.56210083 101.33022573 45.1490308 109.65659142 43.75149536 C113.9351897 43.03284966 118.2127541 42.30898073 122.48828125 41.57226562 C126.62941284 40.85892116 130.77282854 40.16048441 134.91807938 39.47149658 C136.48383434 39.20872637 138.04876205 38.94096677 139.61271286 38.66766357 C148.02653845 37.20096324 156.2388125 36.21233607 164.79150391 36.1796875 C165.53448919 36.17595123 166.27747448 36.17221497 167.04297447 36.16836548 C173.09215795 36.24217111 177.8555532 37.3548802 183.03515625 40.4453125 C183.74929688 40.86941406 184.4634375 41.29351562 185.19921875 41.73046875 C193.29368232 47.17225231 198.51813381 55.96348934 200.72265625 65.3828125 C201.80898791 76.02886278 200.24412011 85.50541241 193.8203125 94.3125 C184.8035504 105.08526172 174.47063383 108.41406941 160.88256836 110.50415039 C159.827229 110.67547989 158.77188965 110.84680939 157.68457031 111.02333069 C154.22877068 111.58178919 150.77075606 112.12494868 147.3125 112.66796875 C144.88254096 113.05766685 142.45273885 113.4483446 140.02308655 113.83995056 C133.64144043 114.86592476 127.25781365 115.8790015 120.87365723 116.88922119 C114.42694152 117.91149274 107.98208129 118.94531722 101.53710938 119.97851562 C94.2640103 121.14393979 86.99075347 122.30827063 79.71604919 123.46363831 C78.60834954 123.63965796 77.50064989 123.81567762 76.35938358 123.99703121 C74.21309449 124.33800423 72.06675093 124.67863461 69.92034817 125.01889133 C65.17736197 125.77342931 60.43747533 126.54040819 55.7036438 127.35055542 C54.88509446 127.49024718 54.06654512 127.62993895 53.22319126 127.77386379 C51.74201826 128.02835089 50.26142018 128.28622426 48.78162289 128.54859257 C22.15487482 133.13103476 -3.25088063 122.75159828 -25.85888672 109.64111328 C-29.13302939 107.7819954 -32.47302852 106.06689053 -35.83984375 104.3828125 C-36.93039063 103.83496094 -38.0209375 103.28710938 -39.14453125 102.72265625 C-48.82384283 98.33881292 -59.1578624 100.33953524 -68.96484375 103.4453125 C-71.33552926 104.37680309 -73.63843342 105.40585256 -75.96484375 106.4453125 C-76.95484375 106.4453125 -77.94484375 106.4453125 -78.96484375 106.4453125 C-78.47113281 107.24195313 -77.97742188 108.03859375 -77.46875 108.859375 C-76.82808594 109.91898437 -76.18742188 110.97859375 -75.52734375 112.0703125 C-74.57021484 113.63652344 -74.57021484 113.63652344 -73.59375 115.234375 C-71.96573789 118.44354995 -71.25305234 120.87557101 -70.96484375 124.4453125 C-74.02677585 133.19368994 -87.40544151 138.03592995 -94.96484375 142.1953125 C-104.11722837 147.23501496 -104.11722837 147.23501496 -113.09375 152.578125 C-113.85236328 153.04508789 -114.61097656 153.51205078 -115.39257812 153.99316406 C-116.7665706 154.84735243 -118.13203248 155.7155004 -119.48632812 156.60058594 C-124.31925015 159.59130583 -127.44728378 160.26314372 -132.96484375 159.4453125 C-136.64114094 156.2710882 -139.06710513 152.96504144 -141.42578125 148.74609375 C-142.05427979 147.63282715 -142.68277832 146.51956055 -143.33032227 145.37255859 C-144.00018674 144.16765656 -144.67002658 142.96274083 -145.33984375 141.7578125 C-146.04715475 140.50028409 -146.75542291 139.24329361 -147.46459961 137.98681641 C-148.92270487 135.40275757 -150.37758712 132.81692454 -151.83056641 130.22998047 C-155.01719128 124.56716835 -158.2725231 118.94411547 -161.52734375 113.3203125 C-162.76833757 111.17193761 -164.00922291 109.02350006 -165.25 106.875 C-165.86246582 105.81506836 -166.47493164 104.75513672 -167.10595703 103.66308594 C-170.22808981 98.25860603 -173.34623279 92.85182513 -176.46484375 87.4453125 C-177.70441775 85.29686961 -178.9440011 83.14843212 -180.18359375 81 C-182.45027194 77.07117 -184.71641614 73.14203312 -186.98181152 69.21246338 C-187.99103479 67.46190009 -189.00038211 65.71140839 -190.00976562 63.9609375 C-191.26652035 61.78139085 -192.52304961 59.60171418 -193.77929688 57.421875 C-194.35615234 56.4215625 -194.93300781 55.42125 -195.52734375 54.390625 C-196.08776367 53.41649658 -196.64818359 52.44236816 -197.22558594 51.4387207 C-198.44631765 49.3377393 -199.68275904 47.24584474 -200.93066406 45.16088867 C-201.56584961 44.09588135 -202.20103516 43.03087402 -202.85546875 41.93359375 C-203.43329102 40.97493408 -204.01111328 40.01627441 -204.60644531 39.02856445 C-206.55161858 35.32944901 -206.96086132 33.51238425 -205.96484375 29.4453125 C-201.54964715 23.90728573 -195.35154241 21.07946153 -189.21484375 17.7578125 C-186.96143501 16.51838876 -184.70883349 15.2774963 -182.45703125 14.03515625 C-181.35327148 13.42784668 -180.24951172 12.82053711 -179.11230469 12.19482422 C-173.50799487 9.07967652 -167.99928414 5.80745912 -162.48828125 2.53125 C-161.90385254 2.18594238 -161.31942383 1.84063477 -160.71728516 1.48486328 C-159.50675229 0.76677343 -158.30095789 0.04065661 -157.09912109 -0.69189453 C-152.11484423 -3.66815553 -149.64779331 -4.47129227 -143.96484375 -3.5546875 C-140.5361382 -0.27836887 -138.3706487 3.39887266 -135.96484375 7.4453125 C-135.04485596 7.13827393 -134.12486816 6.83123535 -133.17700195 6.51489258 C-90.14614232 -7.80718874 -90.14614232 -7.80718874 -68.96484375 -10.5546875 C-68.14113281 -10.66554688 -67.31742188 -10.77640625 -66.46875 -10.890625 C-42.98747833 -13.53539532 -21.08854164 -10.90431909 0 0 Z M-125.96484375 22.4453125 C-125.96484375 26.75630538 -125.33210607 28.05753304 -123.25390625 31.70703125 C-122.67374756 32.73465576 -122.09358887 33.76228027 -121.49584961 34.82104492 C-120.86686768 35.91392822 -120.23788574 37.00681152 -119.58984375 38.1328125 C-118.94861572 39.26114502 -118.3073877 40.38947754 -117.64672852 41.55200195 C-113.34560142 49.10009526 -109.00063364 56.62289818 -104.546875 64.08203125 C-102.52263341 67.47776694 -100.55732067 70.9042304 -98.6015625 74.33984375 C-98.01963135 75.35151611 -97.4377002 76.36318848 -96.83813477 77.40551758 C-95.69197404 79.39837433 -94.55537289 81.39676651 -93.42944336 83.40112305 C-92.90745361 84.30258057 -92.38546387 85.20403809 -91.84765625 86.1328125 C-91.38762207 86.94105469 -90.92758789 87.74929688 -90.45361328 88.58203125 C-89.10659566 90.57703959 -89.10659566 90.57703959 -86.95605469 91.27050781 C-83.93702519 91.53554277 -81.84976823 90.39288572 -79.08984375 89.1953125 C-63.79770683 83.06137155 -47.65234162 80.64333575 -31.89550781 86.61425781 C-25.73543088 89.26586402 -19.98818895 92.81746208 -14.19335938 96.17138672 C7.48611553 108.5644082 28.53351759 114.77687322 53.52392578 110.65698242 C54.72051819 110.46672989 55.9171106 110.27647736 57.14996338 110.08045959 C60.39883051 109.56192553 63.64633732 109.03575308 66.89331293 108.50552535 C70.31016514 107.9490422 73.72841559 107.40126863 77.14645386 106.85212708 C82.88168105 105.92927719 88.61572534 104.99934154 94.34912109 104.06518555 C100.95673264 102.98868809 107.56613764 101.92380708 114.17661202 100.86504287 C120.5652112 99.8415093 126.95239984 98.8094139 133.33901596 97.77358437 C136.0440659 97.33502856 138.74957323 96.89947543 141.45550919 96.46642113 C145.23996832 95.85890412 149.02271581 95.24165218 152.80517578 94.62182617 C154.46995468 94.35748276 154.46995468 94.35748276 156.16836548 94.08779907 C165.21186514 92.58835894 173.456152 91.18095971 180.03515625 84.4453125 C183.1946001 79.54272722 184.81478094 74.14852979 183.59765625 68.3671875 C181.6173452 62.47126143 178.54110925 58.32477725 173.53515625 54.5703125 C162.82397078 51.12743146 150.5265689 54.20958908 139.68359375 56.03515625 C138.05039834 56.30263462 136.41706407 56.56926636 134.78359985 56.83509827 C131.38901634 57.38962638 127.99561196 57.95070689 124.60302734 58.51733398 C120.2545194 59.24358873 115.90425441 59.95855376 111.55319786 60.66936398 C107.38773954 61.35021603 103.22310653 62.03604787 99.05859375 62.72265625 C98.26689159 62.85286604 97.47518944 62.98307583 96.65949631 63.11723137 C94.4266682 63.48550345 92.19445 63.85725512 89.96240234 64.23022461 C88.69367279 64.44118271 87.42494324 64.65214081 86.11776733 64.86949158 C81.77913087 65.50709283 81.77913087 65.50709283 78.7109375 68.30078125 C78.26105469 69.07035156 77.81117188 69.83992188 77.34765625 70.6328125 C72.97585077 77.44545231 67.79682628 81.21567132 60.03515625 83.4453125 C49.92880227 84.48828881 41.77413508 82.99609312 32.47265625 78.9453125 C31.3129834 78.46553955 30.15331055 77.9857666 28.95849609 77.49145508 C26.39196353 76.42889127 23.83355929 75.34921357 21.27978516 74.25634766 C16.62043767 72.26301674 11.94309342 70.31362017 7.265625 68.36328125 C-1.45367718 64.72069236 -10.15829934 61.04465751 -18.85192871 57.34124756 C-20.9441921 56.45406938 -23.04033451 55.57671015 -25.13769531 54.70166016 C-26.41601707 54.16439147 -27.69433747 53.62711952 -28.97265625 53.08984375 C-30.08527832 52.62553955 -31.19790039 52.16123535 -32.34423828 51.68286133 C-34.96484375 50.4453125 -34.96484375 50.4453125 -36.96484375 48.4453125 C-37.93509654 45.45369975 -38.06590035 43.80743199 -37.21484375 40.7578125 C-35.96484375 38.4453125 -35.96484375 38.4453125 -32.96484375 36.4453125 C-27.52087336 35.77803214 -23.49095019 37.56130885 -18.60546875 39.671875 C-17.79543396 40.01169907 -16.98539917 40.35152313 -16.15081787 40.7016449 C-14.40814667 41.4342173 -12.66749947 42.17161961 -10.92871094 42.9133606 C-8.19253718 44.07982204 -5.45075786 45.23204264 -2.70703125 46.38061523 C5.40632138 49.78117403 13.50464861 53.21649543 21.5947876 56.671875 C24.67882896 57.98555157 27.76786403 59.2871759 30.85803223 60.58636475 C32.98866659 61.48813618 35.11086217 62.4079793 37.23339844 63.32861328 C44.02656667 66.21908164 49.58922454 68.33136283 57.03515625 67.4453125 C61.24738061 65.7054807 63.15852161 63.5739087 65.03515625 59.4453125 C66.04314699 55.48534888 66.29395845 53.20649546 64.97265625 49.3203125 C61.05897569 43.51291554 56.1103812 40.6928409 49.69140625 38.23828125 C48.9812738 37.95561905 48.27114136 37.67295685 47.53948975 37.38172913 C46.00743847 36.77306679 44.47340792 36.16936717 42.93762207 35.57019043 C38.79985131 33.95574291 34.67627695 32.30565942 30.55078125 30.66015625 C29.26539459 30.14915878 29.26539459 30.14915878 27.95404053 29.62783813 C17.51620244 25.46578935 7.17916932 21.06440258 -3.15551758 16.65365601 C-45.3032265 -1.33041062 -84.01984982 6.7099613 -125.96484375 22.4453125 Z M-151.96484375 16.4453125 C-155.38022459 18.34492579 -158.79404791 20.24730691 -162.20654297 22.15209961 C-163.92857267 23.11258188 -165.65177419 24.07096224 -167.375 25.02929688 C-173.3386329 28.35986379 -179.2137307 31.75924372 -184.96484375 35.4453125 C-184.38417772 39.25091484 -183.30062641 41.9718895 -181.33203125 45.26953125 C-180.7810376 46.20200684 -180.23004395 47.13448242 -179.66235352 48.09521484 C-179.06092529 49.09762207 -178.45949707 50.1000293 -177.83984375 51.1328125 C-176.55398216 53.30557231 -175.26885023 55.47876407 -173.984375 57.65234375 C-173.31873535 58.77463379 -172.6530957 59.89692383 -171.96728516 61.05322266 C-168.78009173 66.45225527 -165.65369074 71.88589367 -162.52734375 77.3203125 C-161.27087806 79.50002578 -160.01436737 81.67971313 -158.7578125 83.859375 C-156.2170381 88.26985003 -153.67843808 92.6815705 -151.140625 97.09375 C-147.4253527 103.55006976 -143.69994808 110.00044606 -139.96484375 116.4453125 C-139.03019287 118.05913818 -139.03019287 118.05913818 -138.07666016 119.70556641 C-136.27483959 122.81003234 -134.46508348 125.90971253 -132.65234375 129.0078125 C-132.10690918 129.94850586 -131.56147461 130.88919922 -130.99951172 131.85839844 C-130.24565186 133.14085449 -130.24565186 133.14085449 -129.4765625 134.44921875 C-129.03787842 135.20017822 -128.59919434 135.9511377 -128.1472168 136.72485352 C-127.06496244 138.59685273 -127.06496244 138.59685273 -124.96484375 139.4453125 C-122.08650909 138.10380648 -122.08650909 138.10380648 -118.8203125 136.1484375 C-118.21351151 135.79900085 -117.60671051 135.44956421 -116.98152161 135.08953857 C-115.03402281 133.9656083 -113.09323807 132.83060241 -111.15234375 131.6953125 C-109.85523774 130.94458631 -108.55771633 130.19457734 -107.25976562 129.4453125 C-102.13842429 126.483567 -97.03140855 123.50003995 -91.96484375 120.4453125 C-93.61896776 115.91406854 -95.86186101 111.82667193 -98.21484375 107.6328125 C-98.65030518 106.85292969 -99.0857666 106.07304687 -99.53442383 105.26953125 C-104.3372979 96.71177408 -109.30278363 88.24913532 -114.26171875 79.78125 C-118.00119148 73.39248945 -121.70569352 66.9839234 -125.40234375 60.5703125 C-126.01658203 59.50594971 -126.63082031 58.44158691 -127.26367188 57.3449707 C-130.20648873 52.24298857 -133.14317426 47.13765533 -136.06370544 42.02288818 C-137.42880142 39.63320542 -138.79702992 37.24532359 -140.16555786 34.85760498 C-141.12770517 33.17587802 -142.08527631 31.49153556 -143.04272461 29.80712891 C-143.62932861 28.78409668 -144.21593262 27.76106445 -144.8203125 26.70703125 C-145.58831177 25.36064575 -145.58831177 25.36064575 -146.37182617 23.98706055 C-148.05719183 21.29796601 -149.93847454 18.88480098 -151.96484375 16.4453125 Z " fill="#2D365F" transform="translate(260.96484375,352.5546875)"/>
<path d="M0 0 C1.75095699 0.2040518 3.50194465 0.40784055 5.25296021 0.61138916 C9.96574887 1.16010308 14.67806202 1.71279968 19.39026475 2.26652026 C23.33667326 2.72991084 27.28330373 3.19139573 31.22993106 3.6529184 C40.54051218 4.74177115 49.85069846 5.83395438 59.16064453 6.92822266 C68.74639991 8.05484725 78.3328166 9.17571161 87.91957265 10.29378647 C96.17594981 11.25691495 104.43189809 12.2236601 112.68751544 13.1932798 C117.60747015 13.77108764 122.5275745 14.3475333 127.44809914 14.92046928 C132.0705974 15.4588588 136.69254192 16.00177741 141.31410599 16.54812622 C143.00494469 16.74725606 144.69596941 16.94481397 146.38719368 17.14064217 C172.47010838 20.16371552 172.47010838 20.16371552 181.49682617 29.42797852 C185.70095906 36.05757269 186.56428321 41.19210549 186.52587891 48.91381836 C186.53274216 49.88549454 186.53960541 50.85717072 186.54667664 51.85829163 C186.56491109 55.05615029 186.56111147 58.25351673 186.55541992 61.45141602 C186.55998364 63.68429727 186.56528979 65.91717712 186.57130432 68.15005493 C186.58022911 72.82543653 186.57781977 77.50064726 186.56787109 82.17602539 C186.55638832 88.15346893 186.57658605 94.13032112 186.60578823 100.107687 C186.62417747 104.71808592 186.62385219 109.32834388 186.61815071 113.93877029 C186.6179978 116.14188084 186.62401711 118.34500112 186.63644218 120.54807663 C186.65139973 123.63520615 186.6406392 126.72125285 186.62353516 129.80834961 C186.63803711 131.1599543 186.63803711 131.1599543 186.65283203 132.53886414 C186.57023794 139.69528474 184.6717971 145.48352549 180.44604492 151.29516602 C172.41033215 159.00484748 164.09070526 160.06255038 153.30932617 160.55297852 C152.42567383 160.59616211 151.54202148 160.6393457 150.6315918 160.68383789 C148.46182995 160.78939387 146.29184707 160.89038923 144.12182617 160.99047852 C144.05189453 161.8730835 143.98196289 162.75568848 143.90991211 163.66503906 C143.64066799 166.95592078 143.35557713 170.24463981 143.05981445 173.53320312 C142.93532093 174.953561 142.81706944 176.37448095 142.70532227 177.79589844 C142.54306527 179.8456494 142.35805108 181.89229273 142.16870117 183.93969727 C142.06396484 185.17034912 141.95922852 186.40100098 141.85131836 187.66894531 C141.01973813 191.45530711 139.84016798 193.26240592 137.12182617 195.99047852 C133.53315874 197.23871066 131.84379442 197.29728971 128.33666992 195.80688477 C124.80242946 193.81001743 121.69882571 191.47873826 118.55932617 188.92797852 C117.32022863 187.93778697 116.08063415 186.948217 114.84057617 185.95922852 C114.21924805 185.46165039 113.59791992 184.96407227 112.95776367 184.45141602 C110.18354645 182.24384742 107.37400946 180.0835679 104.55932617 177.92797852 C103.49812053 177.11418651 102.43692263 176.3003844 101.37573242 175.48657227 C100.84737793 175.08164551 100.31902344 174.67671875 99.7746582 174.25952148 C98.02205108 172.91387129 96.27278198 171.56397167 94.52416992 170.21313477 C93.93385986 169.75753174 93.3435498 169.30192871 92.73535156 168.83251953 C91.60508416 167.96001849 90.47533506 167.08684547 89.34619141 166.21289062 C84.02106475 161.9260634 84.02106475 161.9260634 77.53843689 160.73219299 C76.12772919 160.72195099 76.12772919 160.72195099 74.68852234 160.71150208 C73.14331657 160.7153315 73.14331657 160.7153315 71.56689453 160.71923828 C70.48036591 160.71401154 69.39383728 160.70878479 68.27438354 160.70339966 C65.91065354 160.69314543 63.54690086 160.68737679 61.18314934 160.68551826 C57.43730481 160.68186098 53.69172658 160.66514919 49.94593811 160.64476013 C40.63604161 160.59628913 31.32610872 160.56476942 22.01611328 160.54345703 C14.1607614 160.5254408 6.30559665 160.49594531 -1.54965019 160.44941521 C-4.02822314 160.43779333 -6.50682957 160.4318351 -8.98542976 160.43173409 C-12.46297678 160.43154106 -15.94001314 160.41320063 -19.41748047 160.39111328 C-20.94143181 160.39797905 -20.94143181 160.39797905 -22.49617004 160.40498352 C-31.71946087 160.31231144 -40.26830171 158.85161522 -46.97621822 152.1419754 C-53.30352747 144.98450753 -54.60956913 137.55114703 -54.47753906 128.27368164 C-54.48148178 127.14711655 -54.4854245 126.02055145 -54.48948669 124.85984802 C-54.49615888 121.16334485 -54.46711068 117.46809811 -54.43676758 113.77172852 C-54.43251275 111.1868107 -54.43018837 108.60188905 -54.42970276 106.01696777 C-54.42355018 100.61032467 -54.40155567 95.20412408 -54.36523438 89.79760742 C-54.32350974 83.57071133 -54.30591857 77.34413387 -54.30261463 71.11710596 C-54.29934748 65.09640714 -54.28419348 59.07582677 -54.26262093 53.05516052 C-54.25377283 50.50679666 -54.2470264 47.95842457 -54.24246025 45.41004944 C-54.23336587 41.84231738 -54.21092948 38.27491662 -54.18457031 34.70727539 C-54.18390564 33.66490219 -54.18324097 32.62252899 -54.18255615 31.54856873 C-54.05989569 19.4517458 -52.18304278 10.46574933 -43.56567383 1.61547852 C-30.58208449 -6.23506388 -14.34111522 -1.69041623 0 0 Z M-34.53833008 17.40844727 C-37.2038131 20.55573771 -37.00516916 24.8781931 -37.03207397 28.84802246 C-37.04067444 29.79846939 -37.0492749 30.74891632 -37.05813599 31.72816467 C-37.06239594 32.75896652 -37.06665588 33.78976837 -37.07104492 34.85180664 C-37.07922241 35.94665878 -37.0873999 37.04151093 -37.0958252 38.16954041 C-37.12060824 41.78693092 -37.13717261 45.40428253 -37.15161133 49.02172852 C-37.15693501 50.25758194 -37.16225868 51.49343536 -37.16774368 52.76673889 C-37.19168903 58.62880884 -37.21093925 64.49086278 -37.22376573 70.35296774 C-37.23884971 77.11152995 -37.27399865 83.86961119 -37.32576692 90.62798929 C-37.36913532 96.49007108 -37.38511022 102.35199089 -37.39149857 108.21421814 C-37.39822546 110.70535506 -37.4134845 113.19648395 -37.43738937 115.68751526 C-37.46890193 119.16846773 -37.46909853 122.64809357 -37.46166992 126.12915039 C-37.47807526 127.15995224 -37.49448059 128.19075409 -37.51138306 129.25279236 C-37.46999012 133.98223614 -37.44390337 136.23993561 -34.52920532 140.10681152 C-30.95591251 142.64578314 -28.45149143 143.11439652 -24.18330383 143.06794739 C-23.21784637 143.06039429 -22.25238892 143.05284119 -21.25767517 143.0450592 C-20.19956131 143.03196213 -19.14144745 143.01886505 -18.05126953 143.00537109 C-15.7375781 142.98593129 -13.42388255 142.9669776 -11.11018372 142.94844055 C-9.8799177 142.93728022 -8.64965168 142.92611988 -7.38210487 142.91462135 C-0.17430419 142.85886742 7.03370083 142.85504922 14.24168527 142.84506381 C21.85897124 142.83380353 29.4750029 142.80344165 37.09179688 142.71289062 C43.80027063 142.63327915 50.50627764 142.61764272 57.21531105 142.63870811 C59.76162414 142.63626574 62.30801417 142.61279962 64.85391808 142.56708717 C79.37077021 142.31954947 89.89718924 142.69210215 100.88313293 152.88212585 C101.41247751 153.39889578 101.94182209 153.9156657 102.48720741 154.44809532 C105.20260984 157.01027751 108.19688892 159.1963774 111.18432617 161.42797852 C112.22331055 162.22848633 113.26229492 163.02899414 114.33276367 163.85375977 C119.74288343 168.67528204 119.74288343 168.67528204 126.12182617 170.99047852 C126.17193848 170.34498047 126.22205078 169.69948242 126.27368164 169.03442383 C126.50615951 166.10235607 126.75135431 163.17148582 126.99682617 160.24047852 C127.07545898 159.22469727 127.1540918 158.20891602 127.23510742 157.16235352 C127.31889648 156.18266602 127.40268555 155.20297852 127.48901367 154.19360352 C127.5623291 153.29287109 127.63564453 152.39213867 127.71118164 151.46411133 C128.13361492 148.91946566 128.75863758 147.17231613 130.12182617 144.99047852 C132.98332305 143.55973008 135.47331016 143.84431579 138.66870117 143.81469727 C140.00205008 143.7914869 141.33538345 143.76736908 142.66870117 143.74243164 C144.76646139 143.70742 146.86365405 143.67803102 148.96166992 143.66455078 C150.98971235 143.64897626 153.01610136 143.60870275 155.04370117 143.56469727 C156.86272949 143.54282349 156.86272949 143.54282349 158.71850586 143.52050781 C162.75166648 142.89238789 164.95274831 141.51729544 168.12182617 138.99047852 C169.80337057 135.62738972 169.30585671 131.822699 169.33056641 128.12207031 C169.34035019 127.20322052 169.35013397 126.28437073 169.36021423 125.337677 C169.39019804 122.28836525 169.4115609 119.2390974 169.43041992 116.18969727 C169.44027766 114.62966949 169.44027766 114.62966949 169.45033455 113.03812599 C169.48293992 107.53405746 169.50738892 102.03000841 169.52685547 96.52587891 C169.54468012 91.96569745 169.57951762 87.40613302 169.62939453 82.84619141 C169.68949657 77.34546699 169.72031752 71.84531549 169.73002815 66.34427834 C169.73860047 64.24665478 169.75746204 62.14904724 169.78677177 60.05161095 C169.82558699 57.11608167 169.82673397 54.18279427 169.81884766 51.24707031 C169.83884827 50.37986862 169.85884888 49.51266693 169.87945557 48.6191864 C169.82726158 44.29356537 169.53600103 42.50968379 166.76576233 39.03694153 C162.33623908 36.03094338 157.32649457 35.61970063 152.12182617 34.99047852 C150.84763762 34.82533123 149.57344906 34.66018394 148.26064873 34.4900322 C143.63830937 33.90269936 139.01014164 33.36929722 134.38134766 32.83569336 C132.60955864 32.62880451 130.83780564 32.42160706 129.06608582 32.21412659 C124.28613315 31.65526986 119.50568278 31.10078432 114.72511935 30.5471797 C109.71564043 29.96636815 104.70661126 29.38170254 99.69752502 28.79751587 C91.29781021 27.8184544 82.89779125 26.84203958 74.49755859 25.86743164 C63.70578231 24.6153393 52.91451999 23.3588727 42.12341213 22.10103416 C32.84443799 21.01948633 23.56523496 19.93990716 14.28599286 18.86066103 C11.30141805 18.51345046 8.31687441 18.16597293 5.33233452 17.81846237 C0.6547128 17.27394377 -4.02304961 16.73064985 -8.70092583 16.18832207 C-10.42073995 15.98876128 -12.14050871 15.78880919 -13.86022949 15.58844566 C-16.19942687 15.31598217 -18.53878339 15.04492964 -20.87818909 14.77426147 C-21.56523078 14.6939158 -22.25227247 14.61357013 -22.96013361 14.53078973 C-28.44634388 13.89869954 -30.04733227 13.94961032 -34.53833008 17.40844727 Z " fill="#FF6859" transform="translate(79.878173828125,33.009521484375)"/>
<path d="M0 0 C0.92874939 -0.00832352 1.85749878 -0.01664703 2.81439209 -0.02522278 C5.89078946 -0.04935798 8.96697497 -0.05809912 12.04345703 -0.06469727 C14.17953557 -0.07366074 16.31561346 -0.08278253 18.45169067 -0.09205627 C22.93232755 -0.10855828 27.41288959 -0.11624863 31.89355469 -0.11914062 C37.63617424 -0.12452636 43.37809101 -0.16220959 49.12051201 -0.20788479 C53.5334429 -0.23762066 57.94620384 -0.24486343 62.35922623 -0.24586678 C64.47635238 -0.25007578 66.59347874 -0.2625372 68.71050644 -0.28338432 C71.67211398 -0.31022685 74.63208312 -0.30549433 77.59375 -0.29296875 C78.46873138 -0.30780304 79.34371277 -0.32263733 80.24520874 -0.33792114 C84.60738037 -0.28535931 86.39427492 -0.09881123 89.9704895 2.62510681 C91.92626953 5.30639648 91.92626953 5.30639648 92.55126953 8.80639648 C91.74432782 13.32527006 90.56150976 14.53334431 86.92626953 17.30639648 C83.82295948 18.02639269 80.80009675 17.98007454 77.62548828 17.9375 C76.69644684 17.9446553 75.7674054 17.95181061 74.81021118 17.95918274 C71.74422795 17.97606894 68.67970704 17.95666722 65.61376953 17.93530273 C63.4805489 17.93613144 61.34732833 17.93859087 59.21411133 17.94261169 C54.74524698 17.94546965 50.27688384 17.93076824 45.80810547 17.90332031 C40.08125343 17.86923796 34.35529764 17.875256 28.62840271 17.89398289 C24.22400449 17.9045539 19.81981464 17.89561404 15.41543579 17.88059807 C13.30393086 17.87541657 11.19240416 17.87589766 9.0809021 17.88214302 C6.12914273 17.88759631 3.1786642 17.86721587 0.22705078 17.83984375 C-0.64478851 17.84636963 -1.51662781 17.85289551 -2.41488647 17.85961914 C-6.45591503 17.79593387 -8.57474861 17.61214394 -12.0925293 15.45664978 C-14.6445182 12.68690452 -15.07373047 11.05761276 -15.07373047 7.30639648 C-11.79108741 0.08458175 -7.24897308 0.00548127 0 0 Z " fill="#FF685A" transform="translate(130.07373046875,123.693603515625)"/>
<path d="M0 0 C0.88812881 -0.0049649 1.77625763 -0.00992981 2.69129944 -0.01504517 C5.63299328 -0.02966452 8.5746332 -0.03646856 11.51635742 -0.04199219 C13.5603587 -0.047744 15.60435996 -0.05350173 17.64836121 -0.05926514 C21.93647513 -0.0697746 26.22457032 -0.07561757 30.51269531 -0.07910156 C36.00391984 -0.08458497 41.49489624 -0.10861004 46.98604298 -0.13707352 C51.20941387 -0.15570949 55.43272512 -0.16090602 59.65613365 -0.16243744 C61.68030847 -0.16546252 63.70448227 -0.17348616 65.72861671 -0.18662262 C68.56275864 -0.20370235 71.39629605 -0.20179806 74.23046875 -0.1953125 C75.0644519 -0.20452728 75.89843506 -0.21374207 76.75769043 -0.22323608 C81.65323404 -0.188193 85.10903138 0.36436432 89.30932617 3.16113281 C90.87182617 6.47363281 90.87182617 6.47363281 91.30932617 10.16113281 C89.26387163 15.68386009 89.26387163 15.68386009 86.30932617 17.16113281 C83.24907348 17.28084994 80.21091825 17.33956062 77.1496582 17.35400391 C76.19994141 17.3621814 75.25022461 17.37035889 74.27172852 17.37878418 C71.12020505 17.40365385 67.9687266 17.42015659 64.81713867 17.43457031 C63.20559214 17.44255583 63.20559214 17.44255583 61.56148911 17.45070267 C55.87701887 17.47743871 50.19257065 17.49681379 44.50805664 17.51123047 C38.62747021 17.52789626 32.74744226 17.57268926 26.86706734 17.62360191 C22.35296968 17.65720111 17.83900589 17.66879977 13.32479477 17.67445755 C11.15659177 17.68118832 8.98839813 17.69645739 6.82031631 17.72034836 C3.78900377 17.75185056 0.7592154 17.7520592 -2.2722168 17.74462891 C-3.62049057 17.76923691 -3.62049057 17.76923691 -4.9960022 17.79434204 C-11.05818297 17.73337925 -11.05818297 17.73337925 -14.24807739 14.84732056 C-16.14237089 11.32004997 -16.26496956 9.10941595 -15.69067383 5.16113281 C-11.43825511 -0.41100206 -6.50663229 0.00865835 0 0 Z " fill="#FF6859" transform="translate(85.690673828125,88.8388671875)"/>
<path d="M0 0 C1.08861328 0.00580078 2.17722656 0.01160156 3.29882812 0.01757812 C12.26776445 0.15556176 12.26776445 0.15556176 15.9375 2.4375 C18.00216502 5.09206931 17.93434937 6.5257176 17.8125 9.9375 C16.83402817 13.85138731 16.05321568 14.97713277 12.9375 17.4375 C8.83111524 18.2580259 4.67923603 18.04029893 0.5 18 C-0.63244141 18.02384766 -1.76488281 18.04769531 -2.93164062 18.07226562 C-11.19343907 18.05766021 -11.19343907 18.05766021 -15.30859375 15.12109375 C-17.64176784 11.5511815 -17.81006964 9.62388998 -17.0625 5.4375 C-12.72192554 -1.1066046 -7.10987636 -0.2154508 0 0 Z " fill="#FF6859" transform="translate(87.0625,123.5625)"/>
<path d="M0 0 C1.33417969 -0.01160156 1.33417969 -0.01160156 2.6953125 -0.0234375 C11.16313958 0.0018396 11.16313958 0.0018396 15 2.25 C17.14291019 5.46436529 17.30025791 7.42426609 17.4609375 11.21484375 C16.78168995 14.21389436 15.36434232 15.32826335 13 17.25 C10.22265625 17.75170898 10.22265625 17.75170898 7.0625 17.74609375 C5.34933594 17.74706055 5.34933594 17.74706055 3.6015625 17.74804688 C2.41304687 17.72806641 1.22453125 17.70808594 0 17.6875 C-1.18851563 17.69458984 -2.37703125 17.70167969 -3.6015625 17.70898438 C-13.6070562 17.63558064 -13.6070562 17.63558064 -17 14.25 C-18.06995896 10.39814776 -18.370011 8.17502749 -16.875 4.4375 C-12.42589241 -0.75312552 -6.31829189 -0.05494167 0 0 Z " fill="#FF6859" transform="translate(205,88.75)"/>
</svg>
